<svg xmlns="http://www.w3.org/2000/svg" width="88.681" height="88.68" viewBox="0 0 88.681 88.68"><g transform="translate(0 -0.002)"><path d="M22.17,44.342a22.17,22.17,0,1,0,22.17,22.17A22.17,22.17,0,0,0,22.17,44.342ZM87.9,30.486,71.449,2.773a5.783,5.783,0,0,0-9.873,0L45.122,30.486A5.545,5.545,0,0,0,50.06,38.8H82.965A5.545,5.545,0,0,0,87.9,30.486Z" fill="#979797" opacity="0.4"/><path d="M326.8,293.543v27.713a5.543,5.543,0,0,1-5.543,5.543H293.543A5.543,5.543,0,0,1,288,321.255V293.543A5.543,5.543,0,0,1,293.543,288h27.713A5.543,5.543,0,0,1,326.8,293.543Z" transform="translate(-238.117 -238.115)" fill="#979797"/></g></svg>