<svg xmlns="http://www.w3.org/2000/svg" width="98.067" height="87.167" viewBox="0 0 98.067 87.167"><path d="M96.02,329.7,70.279,350.3a10.909,10.909,0,0,1-6.81,2.383H2.724A2.724,2.724,0,0,1,0,349.964V333.62A2.724,2.724,0,0,1,2.724,330.9h9.432l7.917-6.418A20.037,20.037,0,0,1,32.688,320h27.24a5.448,5.448,0,0,1,5.38,6.367,5.668,5.668,0,0,1-5.669,4.529H46.308a2.724,2.724,0,1,0,0,5.448h20.14a10.84,10.84,0,0,0,6.81-2.383l15.731-12.581a5.635,5.635,0,0,1,7.253,0,5.448,5.448,0,0,1-.221,8.325Z" transform="translate(0 -265.52)" fill="#979797" opacity="0.4"/><path d="M106.9,0H96a27.24,27.24,0,0,0,27.24,27.24V46.308a2.724,2.724,0,0,0,2.724,2.724h5.448a2.724,2.724,0,0,0,2.724-2.724V27.24A27.24,27.24,0,0,0,106.9,0Zm43.584,0a27.055,27.055,0,0,0-18.012,6.946,32.507,32.507,0,0,1,7.082,19.749A27.251,27.251,0,0,0,161.375,0Z" transform="translate(-79.656)" fill="#979797"/></svg>