<?xml version="1.0" encoding="UTF-8"?>
<svg width="4164px" height="1024px" viewBox="0 0 4164 1024" version="1.1" xmlns="http://www.w3.org/2000/svg" xmlns:xlink="http://www.w3.org/1999/xlink">
    <title>Logo/Dark/Text</title>
    <defs>
        <filter x="-50.4%" y="-49.0%" width="200.7%" height="198.0%" filterUnits="objectBoundingBox" id="filter-1">
            <feGaussianBlur stdDeviation="92.7422035" in="SourceGraphic"></feGaussianBlur>
        </filter>
        <filter x="-64.8%" y="-63.0%" width="229.5%" height="226.0%" filterUnits="objectBoundingBox" id="filter-2">
            <feGaussianBlur stdDeviation="110.407385" in="SourceGraphic"></feGaussianBlur>
        </filter>
        <filter x="-73.0%" y="-71.0%" width="245.9%" height="242.0%" filterUnits="objectBoundingBox" id="filter-3">
            <feGaussianBlur stdDeviation="99.3666466" in="SourceGraphic"></feGaussianBlur>
        </filter>
        <filter x="-71.2%" y="-69.3%" width="242.4%" height="238.6%" filterUnits="objectBoundingBox" id="filter-4">
            <feGaussianBlur stdDeviation="110.407385" in="SourceGraphic"></feGaussianBlur>
        </filter>
        <linearGradient x1="65.2391504%" y1="25.7648943%" x2="17.0394636%" y2="68.9549584%" id="linearGradient-5">
            <stop stop-color="#FF00CD" offset="0%"></stop>
            <stop stop-color="#FF6400" offset="52.1985853%"></stop>
            <stop stop-color="#FFC300" offset="100%"></stop>
        </linearGradient>
        <path d="M619.23877,369.270564 C619.23877,395.073557 598.220177,415.990517 572.292422,415.990517 L136.053522,415.990517 C136.053522,415.990517 126.694191,250.661049 357.637986,250.244219 L456.039836,176.638996 L144.720891,176.638996 C118.793135,176.638996 97.7745426,155.721543 97.7745426,129.91855 C97.7745426,104.11605 118.793135,83.1981034 144.720891,83.1981034 L580.959295,83.1981034 C581.000932,85.1382115 580.925093,87.4157296 580.711458,89.9788625 C580.333753,95.2249975 579.517873,100.349783 578.304957,105.32017 C567.301968,155.157713 518.200922,250.239286 358.506408,250.239286 C358.214952,250.239286 357.928947,250.243726 357.637986,250.244219 L260.973476,322.550118 L572.292422,322.550118 C598.220177,322.550118 619.23877,343.467078 619.23877,369.270564 M717.013313,5.68440029e-14 L717.013313,5.68440029e-14 L134.089737,5.68440029e-14 C60.0339119,5.68440029e-14 0,60.0262166 0,134.073622 C0,207.430562 58.9228848,267.01665 132.025783,268.121297 C53.0068572,314.771623 0,400.790445 0,499.18862 L0,499.18862 L582.923576,499.18862 C656.979401,499.18862 717.013313,439.161443 717.013313,365.114518 L717.013313,365.114518 C717.013313,291.757578 658.090428,232.17149 584.98753,231.066843 C664.006936,184.416036 717.013313,98.398175 717.013313,5.68440029e-14" id="path-6"></path>
        <linearGradient x1="81.7814588%" y1="43.1992396%" x2="91.2116247%" y2="29.5040692%" id="linearGradient-8">
            <stop stop-color="#FFFFFF" stop-opacity="0" offset="0%"></stop>
            <stop stop-color="#EAFF00" offset="100%"></stop>
        </linearGradient>
        <linearGradient x1="0%" y1="73.7588874%" x2="24.8878595%" y2="57.1131608%" id="linearGradient-9">
            <stop stop-color="#04DAFF" offset="0%"></stop>
            <stop stop-color="#0BBDFF" stop-opacity="0" offset="100%"></stop>
        </linearGradient>
        <linearGradient x1="0%" y1="73.5560446%" x2="19.8179456%" y2="58.1697719%" id="linearGradient-10">
            <stop stop-color="#04DAFF" offset="0%"></stop>
            <stop stop-color="#0BBDFF" stop-opacity="0" offset="100%"></stop>
        </linearGradient>
        <linearGradient x1="67.9407532%" y1="50%" x2="0%" y2="50%" id="linearGradient-11">
            <stop stop-color="#FF8A00" stop-opacity="0" offset="0%"></stop>
            <stop stop-color="#EAFF00" offset="100%"></stop>
        </linearGradient>
        <linearGradient x1="80.8574856%" y1="24.1776563%" x2="55.7210848%" y2="44.8643381%" id="linearGradient-12">
            <stop stop-color="#00A2FF" offset="0%"></stop>
            <stop stop-color="#3DAAEB" stop-opacity="0" offset="100%"></stop>
        </linearGradient>
    </defs>
    <g id="Logo/Dark/Text" stroke="none" stroke-width="1" fill="none" fill-rule="evenodd">
        <g id="Group-4" transform="translate(220.000000, 112.000000)">
            <g id="Icons" transform="translate(0.000000, 64.224541)">
                <ellipse id="Oval" fill="#FFBA00" filter="url(#filter-1)" cx="276.26857" cy="433.845423" rx="276.26857" ry="283.930035"></ellipse>
                <ellipse id="Oval-Copy" fill="#E01AD8" filter="url(#filter-2)" cx="596.870313" cy="429.978232" rx="255.709049" ry="262.800358"></ellipse>
                <ellipse id="Oval-Copy-3" fill="#30B0F7" filter="url(#filter-3)" cx="663.688758" cy="209.976166" rx="204.310245" ry="209.976166"></ellipse>
                <ellipse id="Oval-Copy-2" fill="#FF4F00" filter="url(#filter-4)" cx="358.99065" cy="241.242822" rx="232.579587" ry="239.029472"></ellipse>
                <g id="Group-6" transform="translate(69.831478, 89.447321)">
                    <mask id="mask-7" fill="white">
                        <use xlink:href="#path-6"></use>
                    </mask>
                    <use id="Fill-21" fill="url(#linearGradient-5)" xlink:href="#path-6"></use>
                    <path d="M710.329897,0.330173561 L722.24175,36.2393635 C693.518267,215.074392 556.363275,289.915068 348.149921,273.677146 C165.453824,259.429238 62.8804623,322.967964 34.1809468,466.656075 L33.5557121,469.888613 L571.996483,469.88905 C581.641536,469.88905 589.480916,477.637345 589.655864,487.262077 L589.658851,487.590911 C589.658851,497.25753 581.927842,505.114439 572.324584,505.292771 L571.996483,505.292771 L-7.50049203,505.292771 L-4.73086705,485.171744 C20.042642,305.194865 141.012516,222.012393 350.890359,238.380123 C532.234851,252.522624 635.85681,189.17772 667.723028,46.0992005 L668.314693,43.3598072 L126.127275,43.3600968 C67.1055626,43.3600968 34.3756912,74.5711459 24.3058439,142.219975 L24.0076293,144.281099 C22.6468605,153.961974 13.7133486,160.704286 4.05407184,159.340474 C-5.60520488,157.976663 -12.3324748,149.023175 -10.971706,139.3423 C0.967271011,54.4052083 47.0997318,8.87221353 123.79386,7.97004734 L126.127275,7.95637546 L710.329897,0.330173561 Z" id="Path-6-Copy" fill="url(#linearGradient-8)" fill-rule="nonzero" mask="url(#mask-7)" transform="translate(355.547569, 252.811472) rotate(-180.000000) translate(-355.547569, -252.811472) "></path>
                    <path d="M722.24175,0.330173561 L718.946717,20.8453487 C690.223234,199.680378 568.275128,282.288866 360.061775,266.050945 C177.365678,251.803036 74.7923159,315.341763 46.0928004,459.029874 L45.4675657,462.262412 L583.908337,462.262848 C593.55339,462.262848 601.39277,470.011143 601.567718,479.635875 L601.570704,479.964709 C601.570704,489.631329 593.839696,497.488237 584.236437,497.66657 L583.908337,497.66657 L4.41136157,497.66657 L7.18098656,477.545542 C31.9544956,297.568663 152.92437,214.386192 362.802212,230.753921 C544.146705,244.896422 647.768663,181.551518 679.634881,38.4729986 L680.226547,35.7336053 L138.039129,35.7338949 C79.0174162,35.7338949 46.2875448,66.944944 36.2176975,134.593774 L35.9194829,136.654897 C34.5587141,146.335772 25.6252022,153.078084 15.9659254,151.714272 C6.30664872,150.350461 -0.420621151,141.396973 0.940147621,131.716099 C12.8791246,46.7790064 59.0115854,1.24601163 135.705713,0.343845439 L138.039129,0.330173561 L722.24175,0.330173561 Z" id="Path-6-Copy" fill="url(#linearGradient-9)" fill-rule="nonzero" mask="url(#mask-7)" transform="translate(361.503496, 248.998372) rotate(-180.000000) translate(-361.503496, -248.998372) "></path>
                    <path d="M722.24175,0.330173561 L718.946717,20.8453487 C690.223234,199.680378 568.275128,282.288866 360.061775,266.050945 C177.236665,251.792975 72.6577305,315.510472 40.3628545,459.41553 L39.7421684,462.262412 L583.908337,462.262848 C593.55339,462.262848 601.39277,470.011143 601.567718,479.635875 L601.570704,479.964709 C601.570704,489.631329 593.839696,497.488237 584.236437,497.66657 L583.908337,497.66657 L-2.33444416,497.66657 L0.996137607,477.125335 C30.1401745,297.380612 153.060172,214.396782 362.802212,230.753921 C544.146705,244.896422 647.768663,181.551518 679.634881,38.4729986 L680.226547,35.7336053 L138.039129,35.7338949 C79.0174162,35.7338949 46.2875448,66.944944 36.2176975,134.593774 L35.9194829,136.654897 C34.5587141,146.335772 25.6252022,153.078084 15.9659254,151.714272 C6.30664872,150.350461 -0.420621151,141.396973 0.940147621,131.716099 C12.8791246,46.7790064 59.0115854,1.24601163 135.705713,0.343845439 L138.039129,0.330173561 L722.24175,0.330173561 Z" id="Path-6-Copy" fill="url(#linearGradient-10)" fill-rule="nonzero" mask="url(#mask-7)" transform="translate(359.953653, 248.998372) rotate(-180.000000) translate(-359.953653, -248.998372) "></path>
                    <path d="M93.6423257,0.821450038 L101.90676,35.2426184 C68.249485,43.3598222 46.4272405,68.4600485 35.5996996,113.446396 C25.2581451,156.413563 40.3288422,190.381039 83.2689752,218.611394 L84.5787245,219.465107 L65.4352959,249.219298 C9.36877992,212.985394 -12.8671415,163.83959 1.25993088,105.144324 C14.8680216,48.6053277 45.4599655,13.0092124 92.2203948,1.17285207 L93.6423257,0.821450038 Z" id="Path-3" fill="url(#linearGradient-11)" fill-rule="nonzero" mask="url(#mask-7)"></path>
                    <path d="M448.67014,231.598999 L584.98753,231.066843 C612.01989,231.066843 643.793478,242.848163 655.189774,250.088794 C672.664933,261.191628 687.315151,274.762069 698.212502,291.254293 C711.254834,310.992768 718.282213,334.047833 718.282213,360.298481 C718.282213,409.578694 687.794113,472.853786 638.719001,496.946332 L637.228406,497.66657 L622.84975,467.289738 C661.304005,449.006199 684.735456,396.647584 684.735456,360.298481 C684.735456,323.888448 657.270562,263.454705 593.85728,261.977314 C551.581758,260.992386 500.670527,260.992386 441.123588,261.977314 L448.67014,231.598999 Z" id="Path-4" fill="url(#linearGradient-12)" fill-rule="nonzero" mask="url(#mask-7)"></path>
                </g>
                <path d="M689.070248,458.717885 C689.070248,484.520878 668.051656,505.437838 642.1239,505.437838 L205.885,505.437838 C205.885,505.437838 196.525669,340.10837 427.469465,339.69154 L525.871315,266.086316 L214.552369,266.086316 C188.624614,266.086316 167.606021,245.168863 167.606021,219.36587 C167.606021,193.56337 188.624614,172.645424 214.552369,172.645424 L650.790773,172.645424 C650.83241,174.585532 650.756572,176.86305 650.542936,179.426183 C650.165232,184.672318 649.349351,189.797104 648.136435,194.76749 C637.133446,244.605033 588.0324,339.686607 428.337887,339.686607 C428.04643,339.686607 427.760426,339.691047 427.469465,339.69154 L330.804955,411.997439 L642.1239,411.997439 C668.051656,411.997439 689.070248,432.914398 689.070248,458.717885" id="Path" fill="#090C47"></path>
            </g>
        </g>
        <path d="M1459.40719,309.18056 C1492.63262,309.18056 1523.72528,315.336809 1552.65941,327.652154 C1576.87184,337.967051 1600.49837,355.51773 1623.5549,380.270034 L1624.48931,381.277451 L1626.65437,383.621587 L1571.53239,438.24609 L1568.26072,434.801038 C1537.14898,402.259373 1501.09344,386.053847 1459.9195,386.053847 C1423.71446,386.053847 1393.51057,398.032699 1369.11937,422.034976 C1344.73297,446.032526 1332.57893,475.102537 1332.57893,509.436262 C1332.57893,544.961632 1345.19846,574.967145 1370.51708,599.647563 C1395.84946,624.341393 1427.04032,636.665405 1464.27417,636.665405 C1488.45789,636.665405 1508.73983,631.599528 1525.18003,621.50913 C1539.89588,612.477078 1552.09939,598.815058 1561.78691,580.461664 L1562.26919,579.540085 L1562.72835,578.646301 L1455.59545,578.646735 L1455.59545,504.594383 L1651.64566,504.594383 L1652.26098,523.690883 L1652.26098,524.96765 C1652.05942,558.120212 1643.36676,589.585433 1626.20412,619.310626 C1608.84169,649.381835 1586.31237,672.372235 1558.64186,688.226851 C1530.96842,704.083152 1498.55495,712 1461.45644,712 C1421.80531,712 1386.37447,703.360138 1355.21675,686.069201 C1324.02838,668.761247 1299.34161,644.089873 1281.19881,612.108274 C1263.07062,580.152432 1254,545.65352 1254,508.666916 C1254,457.934785 1270.77692,413.725553 1304.27432,376.19354 C1344.01881,331.538664 1395.80975,309.18056 1459.40719,309.18056 Z M1852.94862,409.708406 C1897.69827,409.708406 1934.24507,424.107437 1962.38019,452.886928 C1990.22547,481.369948 2004.28034,518.87633 2004.55806,565.278945 L2004.56226,566.687807 L2004.24387,583.26281 L1780.3224,583.261954 L1780.39213,583.598116 C1783.87145,600.148487 1791.48922,613.486952 1803.27307,623.720061 L1803.86573,624.22913 L1804.46534,624.733025 C1817.93074,635.926116 1835.15618,641.537928 1856.27866,641.537928 C1881.269,641.537928 1902.70207,632.919933 1920.74709,615.613447 L1921.34734,615.033346 L1922.98381,613.439696 L1987.5394,643.787281 L1984.56814,647.977463 C1969.70909,668.785033 1951.92687,684.260087 1931.2415,694.35569 C1910.27153,704.590189 1885.44501,709.691963 1856.79097,709.691963 C1812.22341,709.691963 1775.77133,695.55835 1747.6369,667.304411 C1719.51485,639.062893 1705.43288,603.642757 1705.43288,561.238876 C1705.43288,517.824939 1719.45984,481.645794 1747.4839,452.890602 C1775.52288,424.120103 1810.74543,409.708406 1852.94862,409.708406 Z M2532.95792,409.708406 C2577.70757,409.708406 2614.25437,424.107437 2642.38949,452.886928 C2670.23477,481.369948 2684.28964,518.87633 2684.56736,565.278945 L2684.57156,566.687807 L2684.25317,583.26281 L2460.33146,583.261954 L2460.40143,583.598116 C2463.88075,600.148487 2471.49852,613.486952 2483.28237,623.720061 L2483.87503,624.22913 L2484.47464,624.733025 C2497.94004,635.926116 2515.16548,641.537928 2536.28796,641.537928 C2561.2783,641.537928 2582.71137,632.919933 2600.75639,615.613447 L2601.35664,615.033346 L2602.99311,613.439696 L2667.5487,643.787281 L2664.57744,647.977463 C2649.71839,668.785033 2631.93617,684.260087 2611.2508,694.35569 C2590.28083,704.590189 2565.45431,709.691963 2536.80027,709.691963 C2492.23271,709.691963 2455.78063,695.55835 2427.6462,667.304411 C2399.52415,639.062893 2385.44218,603.642757 2385.44218,561.238876 C2385.44218,517.824939 2399.46914,481.645794 2427.4932,452.890602 C2455.53218,424.120103 2490.75473,409.708406 2532.95792,409.708406 Z M3823.38636,409.708406 C3868.13601,409.708406 3904.68281,424.107437 3932.81793,452.886928 C3960.66321,481.369948 3974.71808,518.87633 3974.9958,565.278945 L3975,566.687807 L3974.68161,583.26281 L3750.76021,583.261954 L3750.82987,583.598116 C3754.30919,600.148487 3761.92696,613.486952 3773.71081,623.720061 L3774.30347,624.22913 L3774.90308,624.733025 C3788.36848,635.926116 3805.59392,641.537928 3826.7164,641.537928 C3851.70674,641.537928 3873.13981,632.919933 3891.18483,615.613447 L3891.78508,615.033346 L3893.42155,613.439696 L3957.97714,643.787281 L3955.00588,647.977463 C3940.14683,668.785033 3922.36461,684.260087 3901.67924,694.35569 C3880.70927,704.590189 3855.88275,709.691963 3827.22871,709.691963 C3782.66115,709.691963 3746.20907,695.55835 3718.07464,667.304411 C3689.95259,639.062893 3675.87062,603.642757 3675.87062,561.238876 C3675.87062,517.824939 3689.89758,481.645794 3717.92164,452.890602 C3745.96062,424.120103 3781.18317,409.708406 3823.38636,409.708406 Z M3052.86919,409.708406 C3070.048,409.708406 3086.20283,412.960633 3101.30601,419.465911 C3113.80018,424.847431 3125.49844,432.44732 3136.39554,442.25295 L3137.43152,443.194721 L3137.43156,416.888967 L3213.70508,416.888967 L3213.70508,702.511402 L3137.43156,702.511402 L3137.43152,677.20789 L3137.01106,677.579274 C3125.6364,687.5196 3114.19627,695.023381 3102.68454,700.077701 L3101.751,700.482143 L3100.88548,700.847404 C3086.72862,706.745478 3071.39797,709.691963 3054.91844,709.691963 C3017.9598,709.691963 2985.93096,695.328457 2959.01941,666.724237 C2932.13096,638.144576 2918.67361,602.581942 2918.67361,560.213082 C2918.67361,516.327462 2931.68645,480.217216 2957.71886,452.056204 C2983.78309,423.860761 3015.56772,409.708406 3052.86919,409.708406 Z M1393.23046,698.775174 L1394.12026,699.052046 C1414.59542,705.367369 1436.61159,708.582057 1460.16875,708.696813 L1461.45644,708.696813 C1437.07102,708.696813 1414.32903,705.3896 1393.23046,698.775174 Z M3361.59209,416.888967 L3361.59209,702.511402 L3284.80625,702.511402 L3284.80625,416.888967 L3361.59209,416.888967 Z M3643.78761,416.888967 L3518.27033,636.664575 L3634.22749,636.665405 L3634.22749,702.511402 L3399.29903,702.511402 L3525.32891,482.733867 L3420.91005,482.734964 L3420.91005,416.888967 L3643.78761,416.888967 Z M2857.08085,409.708406 C2866.39697,409.708406 2876.0786,412.089814 2886.11177,416.818015 L2886.94868,417.217463 L2889.6295,418.513126 L2865.58672,485.060039 L2861.62485,483.094213 C2854.1386,479.41287 2848.06821,477.605992 2843.50453,477.605992 C2834.0895,477.605992 2826.00045,483.537114 2819.10543,495.914673 C2817.05436,499.596649 2815.29093,504.37403 2813.8208,510.237977 L2813.52083,511.466708 L2813.22923,512.72643 C2813.18133,512.938965 2813.13378,513.152791 2813.08658,513.367907 L2812.80757,514.674081 C2812.71597,515.114632 2812.62577,515.56034 2812.53698,516.011203 L2812.2748,517.379254 C2812.23181,517.609839 2812.18917,517.841712 2812.14687,518.074873 L2811.89735,519.489286 L2811.65627,520.934585 C2811.57732,521.421497 2811.49978,521.913554 2811.42365,522.410753 L2811.1995,523.917772 C2811.16285,524.171512 2811.12655,524.426536 2811.09061,524.682845 L2810.87918,526.236108 C2810.84466,526.497553 2810.81048,526.760282 2810.77666,527.024294 L2810.57799,528.623762 C2810.54558,528.892906 2810.51353,529.163332 2810.48184,529.435041 L2810.29594,531.080675 C2810.26567,531.357511 2810.23576,531.635628 2810.20619,531.915027 L2810.0331,533.606788 L2809.86855,535.329279 L2809.71256,537.082481 L2809.56514,538.866379 C2809.54128,539.166252 2809.51778,539.467404 2809.49464,539.769833 L2809.3601,541.59974 L2809.23415,543.460298 C2809.21388,543.772944 2809.19396,544.086867 2809.1744,544.402066 L2809.06137,546.308568 C2809.04325,546.62887 2809.02549,546.950447 2809.00809,547.273298 L2808.908,549.225706 L2808.81656,551.208695 C2808.80204,551.541741 2808.78788,551.87606 2808.77408,552.211652 L2808.69562,554.240481 C2808.68326,554.581165 2808.67127,554.923121 2808.65964,555.266349 L2808.59418,557.340978 L2808.53741,559.44612 L2808.48934,561.581756 L2808.44998,563.74787 L2808.41934,565.944443 L2808.39743,568.171459 L2808.38426,570.4289 L2808.37985,572.716749 L2808.63659,586.370837 L2808.63659,702.511402 L2732.61923,702.511402 L2732.61923,416.888967 L2799.15879,416.888967 L2799.15864,442.503254 L2799.2731,442.325165 C2804.66954,434.003307 2811.08873,427.212753 2818.52949,421.974292 L2819.25275,421.47219 L2819.90101,421.034016 C2831.20022,413.492632 2843.61995,409.708406 2857.08085,409.708406 Z M2224.71672,409.708406 C2253.2534,409.708406 2277.57461,419.713594 2297.50509,439.666838 C2314.23481,456.591911 2322.62553,481.372875 2322.79419,513.835611 L2322.79419,702.511402 L2247.03299,702.511402 L2247.03122,574.916912 L2247.01726,571.096175 L2246.98941,567.380079 L2246.9477,563.768726 L2246.8761,559.401982 L2246.82279,556.86065 L2246.76174,554.378405 L2246.66829,551.160734 L2246.5892,548.816526 L2246.50239,546.531549 L2246.37469,543.57712 L2246.23332,540.728165 L2246.11836,538.660727 L2245.99574,536.652717 L2245.86549,534.704178 L2245.77441,533.438212 L2245.63145,531.588886 L2245.48088,529.799143 L2245.37628,528.639105 L2245.26831,527.505581 L2245.10003,525.855034 L2244.9242,524.264214 L2244.7408,522.733163 L2244.61435,521.745688 L2244.48455,520.784808 L2244.3514,519.850537 L2244.21491,518.942886 L2244.07509,518.061868 L2243.93193,517.207496 L2243.71095,515.975927 L2243.55947,515.188226 L2243.40467,514.427214 C2243.37859,514.302603 2243.35238,514.179106 2243.32603,514.056721 L2243.08512,512.985311 L2242.92038,512.304445 L2242.75233,511.650319 C2242.72405,511.543527 2242.69563,511.43785 2242.66707,511.333288 C2239.85943,501.05365 2235.0386,493.33945 2228.21094,488.075385 C2221.38506,482.812679 2212.916,480.170478 2202.68723,480.170478 C2189.34403,480.170478 2177.98202,484.600721 2168.43542,493.515675 C2158.78184,502.530528 2152.05002,515.070065 2148.26366,531.221605 L2148.14051,531.764771 L2148.01989,532.335452 L2147.90182,532.933631 L2147.7863,533.559294 L2147.6178,534.549284 L2147.45504,535.601021 L2147.34974,536.336456 L2147.1966,537.490984 L2147.04924,538.707114 L2146.90768,539.984791 L2146.77192,541.323963 L2146.64198,542.724574 L2146.51787,544.186571 L2146.36147,546.231295 L2146.251,547.836314 L2146.14641,549.502538 L2146.01609,551.819283 L2145.92523,553.628108 L2145.81328,556.134791 L2145.71185,558.749833 L2145.64271,560.782148 L2145.55978,563.58651 L2145.48746,566.498877 L2145.42577,569.519123 L2145.3865,571.855024 L2145.34349,575.063746 L2145.30479,579.225839 L2145.28289,583.555688 L2145.27749,587.140183 L2145.27749,702.511402 L2069.00396,702.511402 L2069.00396,416.888967 L2145.27749,416.888967 L2145.27666,441.686265 L2145.95519,441.14692 C2159.11617,430.706056 2171.26347,423.116413 2182.42135,418.385045 L2183.18059,418.066881 L2183.90464,417.770557 C2197.18757,412.398493 2210.7989,409.708406 2224.71672,409.708406 Z M3067.21397,477.636637 C3045.52602,477.636637 3027.50966,485.287353 3013.16488,500.588785 C2998.82009,515.890218 2991.6477,535.508535 2991.6477,559.443736 C2991.6477,583.549903 2998.94817,603.381927 3013.54911,618.939808 C3028.15005,634.497689 3046.12372,642.276629 3067.47013,642.276629 C3089.49962,642.276629 3107.77214,634.625913 3122.2877,619.324481 C3136.80325,604.023049 3144.06103,583.977317 3144.06103,559.187287 C3144.06103,534.910154 3136.80325,515.249096 3122.2877,500.204112 C3107.77214,485.159129 3089.41423,477.636637 3067.21397,477.636637 Z M2536.28796,472.251217 C2516.82004,472.251217 2499.74292,477.72212 2485.05659,488.663926 C2475.83494,495.502555 2467.29638,507.555639 2459.4409,524.823177 L2459.4409,524.823177 L2610.82961,524.823177 C2606.21878,509.265296 2597.12521,496.613832 2583.5489,486.868786 C2569.97259,477.12374 2554.21894,472.251217 2536.28796,472.251217 Z M3826.7164,472.251217 C3807.24848,472.251217 3790.17136,477.72212 3775.48503,488.663926 C3766.26338,495.502555 3757.72482,507.555639 3749.86934,524.823177 L3749.86934,524.823177 L3901.25805,524.823177 C3896.64722,509.265296 3887.55365,496.613832 3873.97734,486.868786 C3860.40103,477.12374 3844.64738,472.251217 3826.7164,472.251217 Z M1856.27866,472.251217 C1836.81074,472.251217 1819.73362,477.72212 1805.04729,488.663926 C1795.82564,495.502555 1787.28708,507.555639 1779.4316,524.823177 L1779.4316,524.823177 L1930.82031,524.823177 C1926.20948,509.265296 1917.11591,496.613832 1903.5396,486.868786 C1889.96329,477.12374 1874.20964,472.251217 1856.27866,472.251217 Z M3323.19917,302 C3336.37937,302 3347.76729,306.800374 3357.17884,316.314118 C3366.58734,325.82479 3371.32605,337.431725 3371.32605,350.951035 C3371.32605,364.300269 3366.6294,375.778672 3357.30703,385.203169 C3347.98159,394.630758 3336.72205,399.389173 3323.71149,399.389173 C3310.35727,399.389173 3298.8785,394.543216 3289.46459,384.935576 C3280.06142,375.338905 3275.32845,363.608022 3275.32845,349.925241 C3275.32845,336.739222 3280.03104,325.384777 3289.35883,316.046359 C3298.68663,306.707941 3310.02815,302 3323.19917,302 Z" id="Combined-Shape" fill="#000000" fill-rule="nonzero"></path>
    </g>
</svg>