<?xml version="1.0" encoding="utf-8"?>
<!-- Generator: Adobe Illustrator 25.4.1, SVG Export Plug-In . SVG Version: 6.00 Build 0)  -->
<svg version="1.1" id="Layer_1" xmlns="http://www.w3.org/2000/svg" xmlns:xlink="http://www.w3.org/1999/xlink" x="0px" y="0px"
	 viewBox="0 0 3027.1 2042.3" style="enable-background:new 0 0 3027.1 2042.3;" xml:space="preserve">
<style type="text/css">
	.st0{fill:#CDCEC8;}
	.st1{opacity:0.44;fill:#353636;}
	.st2{fill:#1A181A;}
	.st3{fill:#ABABAB;}
	.st4{fill:none;stroke:#000000;stroke-miterlimit:10;}
	.st5{fill:none;stroke:#000000;stroke-width:9;stroke-miterlimit:10;}
</style>
<g>
	<path class="st0" d="M2329.3,242.4c-126.9,0-244.4,40.1-340.5,108.3c118.7,125.3,191.5,294.5,191.5,480.7s-72.8,355.4-191.5,480.7
		c96.1,68.2,213.6,108.3,340.5,108.3c325.3,0,589-263.7,589-589S2654.6,242.4,2329.3,242.4z"/>
	<path class="st0" d="M980.1,344.3C885.7,280,771.7,242.4,649,242.4c-325.3,0-589,263.7-589,589s263.7,589,589,589
		c122.8,0,236.8-37.6,331.1-101.8c-122.4-125.9-197.8-297.7-197.8-487.2S857.7,470.2,980.1,344.3z"/>
	<path class="st1" d="M1712,433c-62.7-53.9-142.7-83.5-225.5-83.5c-141.3,0-263,85.1-316.7,206.7c21.8,41.2,38.9,85.2,50.5,131.4
		H1758c11.1-44.2,27.2-86.3,47.6-125.9C1785,512.6,1753,468.3,1712,433z"/>
	<path class="st1" d="M1487.5,1057.5c90.4,0,175.9-34.6,240.8-97.5c7.6-7.3,14.7-15,21.6-22.9c-6.2-34.3-9.5-69.6-9.5-105.7
		c0-35,3.1-69.2,9-102.6H1229c5.9,33.3,9,67.6,9,102.6c0,37.2-3.5,73.6-10.1,108.8C1292.1,1012.9,1385.8,1057.5,1487.5,1057.5z"/>
	<path class="st1" d="M1144.7,513.4c65.3-122,194-205.2,341.8-205.2c92.6,0,182.2,33.2,252.4,93.5c38.1,32.7,69.1,72.3,91.8,116.2
		c41.3-65.5,95.1-122.4,158.2-167.1c-127.4-134.5-307.7-218.4-507.5-218.4c-196.6,0-374.2,81.2-501.2,211.9
		C1045.7,389,1101.7,446.6,1144.7,513.4z"/>
	<path class="st1" d="M1161.3,1150.2c62.7,121.1,182.6,193.4,321,193.6c173.1-8.8,289.5-89.3,332.6-225.3
		c-23.1-41.4-41.4-85.9-54.1-132.7c-1.3,1.3-2.5,2.6-3.8,3.9c-72.6,70.4-168.4,109.1-269.5,109.1c-103.7,0-200-41.5-270.7-110.4
		c-15.9,57.5-40.2,111.4-71.6,160.4l15.8,0.7C1160.9,1149.5,1161.1,1149.8,1161.3,1150.2z"/>
	<path class="st1" d="M1842.3,1162.8c-56,133-182,213.4-358.5,222.2l-0.5,0h-0.5c-152.2,0-284.4-78.5-355.2-210.4
		c-40.4,56.2-90.3,105-147.5,143.9c127,130.7,304.6,211.9,501.2,211.9c199.9,0,380.1-83.9,507.5-218.4
		C1931.6,1271.5,1881.9,1220.9,1842.3,1162.8z"/>
	<path class="st0" d="M1749.8,937.1c50.2-58.2,79.4-130.9,83.3-208.2h-83.8c-5.9,33.3-9,67.6-9,102.6
		C1740.3,867.5,1743.6,902.8,1749.8,937.1z"/>
	<path class="st1" d="M1749.8,937.1c50.2-58.2,79.4-130.9,83.3-208.2h-83.8c-5.9,33.3-9,67.6-9,102.6
		C1740.3,867.5,1743.6,902.8,1749.8,937.1z"/>
	<path class="st0" d="M1814.9,1118.5c10.8-34.2,17.1-71.8,18.4-112.8l0-0.7c1.8-27.5,1.9-71.6,1.5-121.8
		c-18.6,37.6-43.5,72.2-74,102.6C1773.5,1032.6,1791.7,1077.1,1814.9,1118.5z"/>
	<path class="st1" d="M1814.9,1118.5c10.8-34.2,17.1-71.8,18.4-112.8l0-0.7c1.8-27.5,1.9-71.6,1.5-121.8
		c-18.6,37.6-43.5,72.2-74,102.6C1773.5,1032.6,1791.7,1077.1,1814.9,1118.5z"/>
	<path class="st0" d="M1988.8,350.8c-63,44.7-116.9,101.6-158.2,167.1c17,32.8,29.2,68.1,36.2,104.7l0.1,0c3,16.7,3.3,17.9,2.9,17.4
		h-41l-0.7,0.1c-4.4-27.1-12-53.3-22.5-78.4c-20.4,39.6-36.5,81.7-47.6,125.9h116.6v20.6c0,5.4,0,11,0,16.5l0,0c0,0.1,0,0.2,0,0.3
		c0.1,33.9,0.5,68.6,0.9,102.4c0.8,72.5,1.6,141.1-0.9,180c-1.9,57.6-12.9,109.6-32.2,155.5c39.6,58,89.2,108.7,146.5,149.3
		c118.7-125.3,191.5-294.5,191.5-480.7S2107.5,476.1,1988.8,350.8z"/>
	<path class="st1" d="M1988.8,350.8c-63,44.7-116.9,101.6-158.2,167.1c17,32.8,29.2,68.1,36.2,104.7l0.1,0c3,16.7,3.3,17.9,2.9,17.4
		h-41l-0.7,0.1c-4.4-27.1-12-53.3-22.5-78.4c-20.4,39.6-36.5,81.7-47.6,125.9h116.6v20.6c0,5.4,0,11,0,16.5l0,0c0,0.1,0,0.2,0,0.3
		c0.1,33.9,0.5,68.6,0.9,102.4c0.8,72.5,1.6,141.1-0.9,180c-1.9,57.6-12.9,109.6-32.2,155.5c39.6,58,89.2,108.7,146.5,149.3
		c118.7-125.3,191.5-294.5,191.5-480.7S2107.5,476.1,1988.8,350.8z"/>
	<path class="st0" d="M1220.2,687.6c-11.6-46.2-28.7-90.2-50.5-131.4c-17.8,40.4-28.1,84.8-29.2,131.4H1220.2z"/>
	<path class="st1" d="M1220.2,687.6c-11.6-46.2-28.7-90.2-50.5-131.4c-17.8,40.4-28.1,84.8-29.2,131.4H1220.2z"/>
	<path class="st0" d="M1127.6,1174.7c-1.1-2-2.2-4-3.2-6l0,0c-0.3-0.6-6.4-13.3-8-21.2l28.8,1.3c31.4-49,55.7-102.9,71.6-160.4
		c-47.4-46.2-83.2-104.7-102-171.4l-0.1,0c-2.1-6-2.5-12-2.8-15.1h41.4l-1,0.4l1-0.3c14.2,52.5,40.2,99.4,74.6,138.3
		c6.6-35.3,10.1-71.7,10.1-108.8c0-35-3.1-69.2-9-102.6h-129.7v-23.8c-0.1-3.2-0.2-6.3-0.2-9.5c0-2.5,0.1-4.9,0.2-7.3v-0.7h0
		c1.3-62.8,17.5-122.1,45.4-174.2c-43-66.8-99-124.5-164.6-169.1C857.7,470.2,782.3,642,782.3,831.5s75.4,361.3,197.8,487.2
		C1037.3,1279.7,1087.2,1230.9,1127.6,1174.7z"/>
	<path class="st1" d="M1127.6,1174.7c-1.1-2-2.2-4-3.2-6l0,0c-0.3-0.6-6.4-13.3-8-21.2l28.8,1.3c31.4-49,55.7-102.9,71.6-160.4
		c-47.4-46.2-83.2-104.7-102-171.4l-0.1,0c-2.1-6-2.5-12-2.8-15.1h41.4l-1,0.4l1-0.3c14.2,52.5,40.2,99.4,74.6,138.3
		c6.6-35.3,10.1-71.7,10.1-108.8c0-35-3.1-69.2-9-102.6h-129.7v-23.8c-0.1-3.2-0.2-6.3-0.2-9.5c0-2.5,0.1-4.9,0.2-7.3v-0.7h0
		c1.3-62.8,17.5-122.1,45.4-174.2c-43-66.8-99-124.5-164.6-169.1C857.7,470.2,782.3,642,782.3,831.5s75.4,361.3,197.8,487.2
		C1037.3,1279.7,1087.2,1230.9,1127.6,1174.7z"/>
</g>
<g>
	<path class="st2" d="M166.4,1813.7V1780h157.8c-2.4,83.8-65.1,130.1-131.5,130.1c-67.4,0-125.1-59.2-125.1-127.3
		c0-81.7,62-134.2,125.1-134.2c47.9,0,89,22.8,114.3,68.1h-42.5c-21.2-24.5-42.5-34.4-70.1-34.4c-48.5,0-90.3,46.3-90.3,96
		c0,53.1,41.5,98.1,91.7,98.1c39.4,0,71.1-22.1,87-62.7H166.4z"/>
	<path class="st2" d="M558,1905.3v-252h135.9v33.7h-99.1v74.2h99.1v33.7h-99.1v76.6h99.1v33.7H558z"/>
	<path class="st2" d="M796.3,1905.3v-90.9L718,1653.4h41.2l55.5,118.2l55.2-118.2h40.9l-77.6,161.1v90.9H796.3z"/>
</g>
<g>
	<path class="st3" d="M996.6,1716.6c0-22.1-15.2-35.3-36.8-35.3c-18.4,0-35.1,15.5-35.1,33.4c0,17.2,12.4,27.1,37.9,34.7
		c56.7,16.8,77.6,36.7,77.6,78.9c0,44.3-34,74-80.4,74c-46.7,0-80-31-80.7-77h38.2c0.4,26.4,17,44.3,42.5,44.3s42.1-17.2,42.1-41.3
		c0-17.8-8.5-29.1-36.5-38c-64.8-20.5-79-40.3-79-75c0-37.3,32.9-66.7,73.3-66.7c43.2,0,74.4,25.4,75.1,68H996.6z"/>
	<path class="st3" d="M1075.5,1897.6v-244.4h76.1c56.3,0,92.1,26.1,92.1,74s-35.1,74-91.7,74h-38.2v96.4H1075.5z M1151.7,1768.5
		c33.6,0,53.8-14.9,53.8-41.3c0-26.8-20.9-41.3-54.2-41.3h-37.5v82.6H1151.7z"/>
	<path class="st3" d="M1415.5,1897.6l-29-72h-94.2l-29,72h-40.4l99.5-244.4h34.3l99.5,244.4H1415.5z M1340.1,1699.4h-0.7l-33.6,93.5
		h67.6L1340.1,1699.4z"/>
	<path class="st3" d="M1746.2,1897.6v-244.4h141.3v32.7h-103.1v72h103.1v32.7h-103.1v74.3h103.1v32.7H1746.2z"/>
</g>
<path class="st2" d="M444.1,1656h-79.4v249.6H401v-107.5l79.4,107.5h39.6l-75.8-104.7C553.4,1793.3,546.8,1656,444.1,1656z
	 M394.5,1775.4v-93.7h47c75.8,6.6,63.4,88,0,93.7H394.5z"/>
<path class="st3" d="M1663.6,1829.7h48.5c-21.4,40.8-64.1,68.6-113.2,68.6c-70.6,0-127.8-57.2-127.8-127.8
	c0-70.6,57.2-127.8,127.8-127.8c51.8,0,96.4,30.9,116.4,75.2h-47.5c-15.9-20.4-40.8-33.5-68.6-33.5c-48.1,0-87,39-87,87
	c0,48.1,39,87,87,87C1624.7,1858.2,1647.7,1847.3,1663.6,1829.7z"/>
<path class="st4" d="M2106,1706.2"/>
<path class="st5" d="M2121,1708.3c-21.7-33.3-59.3-55.4-102-55.4c-67.1,0-121.6,54.4-121.6,121.6c0,67.1,54.4,121.6,121.6,121.6
	c59.1,0,108.4-42.2,119.3-98.1H1996"/>
<path class="st5" d="M2186.9,1893.6v-235.3l80,0c96.5,12.9,78.4,137.1,3.6,141.2l-26-0.6l68.3,93.5"/>
<circle class="st5" cx="2487.2" cy="1776.2" r="123"/>
<path class="st5" d="M2798.7,1654c0,39.4,0,177.8,0,177.8c0,34.5-28.3,62.8-62.8,62.8h-13.5c-34.5,0-62.8-28.3-62.8-62.8
	c0,0,0-140.5,0-178.7"/>
<path class="st5" d="M2853.3,1787.3c39.4-0.1,75.7-0.2,75.7-0.2c31.9-0.1,57.9-26.2,57.8-58.1l0-12.5c-0.1-31.9-26.2-57.9-58.1-57.8
	c0,0-36.2,0.1-75.6,0.2v235.8"/>
</svg>
