<?xml version="1.0" encoding="utf-8"?>
<!-- Generator: Adobe Illustrator 25.4.1, SVG Export Plug-In . SVG Version: 6.00 Build 0)  -->
<svg version="1.1" id="Layer_1" xmlns="http://www.w3.org/2000/svg" xmlns:xlink="http://www.w3.org/1999/xlink" x="0px" y="0px"
	 viewBox="0 0 3027.1 2042.3" style="enable-background:new 0 0 3027.1 2042.3;" xml:space="preserve">
<style type="text/css">
	.st0{fill:#CDCEC8;}
	.st1{opacity:0.44;fill:#353636;}
	.st2{fill:#1A181A;}
	.st3{fill:#ABABAB;}
	.st4{fill:none;stroke:#000000;stroke-miterlimit:10;}
	.st5{fill:none;stroke:#000000;stroke-width:9;stroke-miterlimit:10;}
</style>
<g>
	<path class="st0" d="M2329.3,242.4c-126.9,0-244.4,40.1-340.5,108.3c118.7,125.3,191.5,294.5,191.5,480.7s-72.8,355.4-191.5,480.7
		c96.1,68.2,213.6,108.3,340.5,108.3c325.3,0,589-263.7,589-589S2654.6,242.4,2329.3,242.4z"/>
	<path class="st0" d="M980.1,344.3C885.7,280,771.7,242.4,649,242.4c-325.3,0-589,263.7-589,589s263.7,589,589,589
		c122.8,0,236.8-37.6,331.1-101.8c-122.4-125.9-197.8-297.7-197.8-487.2S857.7,470.2,980.1,344.3z"/>
	<path class="st1" d="M1712,433c-62.7-53.9-142.7-83.5-225.5-83.5c-141.3,0-263,85.1-316.7,206.7c21.8,41.2,38.9,85.2,50.5,131.4
		H1758c11.1-44.2,27.2-86.3,47.6-125.9C1785,512.6,1753,468.3,1712,433z"/>
	<path class="st1" d="M1487.5,1057.5c90.4,0,175.9-34.6,240.8-97.5c7.6-7.3,14.7-15,21.6-22.9c-6.2-34.3-9.5-69.6-9.5-105.7
		c0-35,3.1-69.2,9-102.6H1229c5.9,33.3,9,67.6,9,102.6c0,37.2-3.5,73.6-10.1,108.8C1292.1,1012.9,1385.8,1057.5,1487.5,1057.5z"/>
	<path class="st1" d="M1144.7,513.4c65.3-122,194-205.2,341.8-205.2c92.6,0,182.2,33.2,252.4,93.5c38.1,32.7,69.1,72.3,91.8,116.2
		c41.3-65.5,95.1-122.4,158.2-167.1c-127.4-134.5-307.7-218.4-507.5-218.4c-196.6,0-374.2,81.2-501.2,211.9
		C1045.7,389,1101.7,446.6,1144.7,513.4z"/>
	<path class="st1" d="M1161.3,1150.2c62.7,121.1,182.6,193.4,321,193.6c173.1-8.8,289.5-89.3,332.6-225.3
		c-23.1-41.4-41.4-85.9-54.1-132.7c-1.3,1.3-2.5,2.6-3.8,3.9c-72.6,70.4-168.4,109.1-269.5,109.1c-103.7,0-200-41.5-270.7-110.4
		c-15.9,57.5-40.2,111.4-71.6,160.4l15.8,0.7C1160.9,1149.5,1161.1,1149.8,1161.3,1150.2z"/>
	<path class="st1" d="M1842.3,1162.8c-56,133-182,213.4-358.5,222.2l-0.5,0h-0.5c-152.2,0-284.4-78.5-355.2-210.4
		c-40.4,56.2-90.3,105-147.5,143.9c127,130.7,304.6,211.9,501.2,211.9c199.9,0,380.1-83.9,507.5-218.4
		C1931.6,1271.5,1881.9,1220.9,1842.3,1162.8z"/>
	<path class="st0" d="M1749.8,937.1c50.2-58.2,79.4-130.9,83.3-208.2h-83.8c-5.9,33.3-9,67.6-9,102.6
		C1740.3,867.5,1743.6,902.8,1749.8,937.1z"/>
	<path class="st1" d="M1749.8,937.1c50.2-58.2,79.4-130.9,83.3-208.2h-83.8c-5.9,33.3-9,67.6-9,102.6
		C1740.3,867.5,1743.6,902.8,1749.8,937.1z"/>
	<path class="st0" d="M1814.9,1118.5c10.8-34.2,17.1-71.8,18.4-112.8l0-0.7c1.8-27.5,1.9-71.6,1.5-121.8
		c-18.6,37.6-43.5,72.2-74,102.6C1773.5,1032.6,1791.7,1077.1,1814.9,1118.5z"/>
	<path class="st1" d="M1814.9,1118.5c10.8-34.2,17.1-71.8,18.4-112.8l0-0.7c1.8-27.5,1.9-71.6,1.5-121.8
		c-18.6,37.6-43.5,72.2-74,102.6C1773.5,1032.6,1791.7,1077.1,1814.9,1118.5z"/>
	<path class="st0" d="M1988.8,350.8c-63,44.7-116.9,101.6-158.2,167.1c17,32.8,29.2,68.1,36.2,104.7l0.1,0c3,16.7,3.3,17.9,2.9,17.4
		h-41l-0.7,0.1c-4.4-27.1-12-53.3-22.5-78.4c-20.4,39.6-36.5,81.7-47.6,125.9h116.6v20.6c0,5.4,0,11,0,16.5l0,0c0,0.1,0,0.2,0,0.3
		c0.1,33.9,0.5,68.6,0.9,102.4c0.8,72.5,1.6,141.1-0.9,180c-1.9,57.6-12.9,109.6-32.2,155.5c39.6,58,89.2,108.7,146.5,149.3
		c118.7-125.3,191.5-294.5,191.5-480.7S2107.5,476.1,1988.8,350.8z"/>
	<path class="st1" d="M1988.8,350.8c-63,44.7-116.9,101.6-158.2,167.1c17,32.8,29.2,68.1,36.2,104.7l0.1,0c3,16.7,3.3,17.9,2.9,17.4
		h-41l-0.7,0.1c-4.4-27.1-12-53.3-22.5-78.4c-20.4,39.6-36.5,81.7-47.6,125.9h116.6v20.6c0,5.4,0,11,0,16.5l0,0c0,0.1,0,0.2,0,0.3
		c0.1,33.9,0.5,68.6,0.9,102.4c0.8,72.5,1.6,141.1-0.9,180c-1.9,57.6-12.9,109.6-32.2,155.5c39.6,58,89.2,108.7,146.5,149.3
		c118.7-125.3,191.5-294.5,191.5-480.7S2107.5,476.1,1988.8,350.8z"/>
	<path class="st0" d="M1220.2,687.6c-11.6-46.2-28.7-90.2-50.5-131.4c-17.8,40.4-28.1,84.8-29.2,131.4H1220.2z"/>
	<path class="st1" d="M1220.2,687.6c-11.6-46.2-28.7-90.2-50.5-131.4c-17.8,40.4-28.1,84.8-29.2,131.4H1220.2z"/>
	<path class="st0" d="M1127.6,1174.7c-1.1-2-2.2-4-3.2-6l0,0c-0.3-0.6-6.4-13.3-8-21.2l28.8,1.3c31.4-49,55.7-102.9,71.6-160.4
		c-47.4-46.2-83.2-104.7-102-171.4l-0.1,0c-2.1-6-2.5-12-2.8-15.1h41.4l-1,0.4l1-0.3c14.2,52.5,40.2,99.4,74.6,138.3
		c6.6-35.3,10.1-71.7,10.1-108.8c0-35-3.1-69.2-9-102.6h-129.7v-23.8c-0.1-3.2-0.2-6.3-0.2-9.5c0-2.5,0.1-4.9,0.2-7.3v-0.7h0
		c1.3-62.8,17.5-122.1,45.4-174.2c-43-66.8-99-124.5-164.6-169.1C857.7,470.2,782.3,642,782.3,831.5s75.4,361.3,197.8,487.2
		C1037.3,1279.7,1087.2,1230.9,1127.6,1174.7z"/>
	<path class="st1" d="M1127.6,1174.7c-1.1-2-2.2-4-3.2-6l0,0c-0.3-0.6-6.4-13.3-8-21.2l28.8,1.3c31.4-49,55.7-102.9,71.6-160.4
		c-47.4-46.2-83.2-104.7-102-171.4l-0.1,0c-2.1-6-2.5-12-2.8-15.1h41.4l-1,0.4l1-0.3c14.2,52.5,40.2,99.4,74.6,138.3
		c6.6-35.3,10.1-71.7,10.1-108.8c0-35-3.1-69.2-9-102.6h-129.7v-23.8c-0.1-3.2-0.2-6.3-0.2-9.5c0-2.5,0.1-4.9,0.2-7.3v-0.7h0
		c1.3-62.8,17.5-122.1,45.4-174.2c-43-66.8-99-124.5-164.6-169.1C857.7,470.2,782.3,642,782.3,831.5s75.4,361.3,197.8,487.2
		C1037.3,1279.7,1087.2,1230.9,1127.6,1174.7z"/>
</g>
</svg>
