<svg xmlns="http://www.w3.org/2000/svg" width="1358" height="1358" viewBox="0 0 1358 1358"><g transform="translate(-930 111)"><circle cx="679" cy="679" r="679" transform="translate(930 -111)" fill="#5a5a5a" opacity="0.42"/><path d="M1698.667,662.956c0-.07.01-.139.012-.209h-.012c-.014-4.4-.036-8.826-.036-13.184V633.03H1110.59A275.45,275.45,0,0,1,1134,527.767c43.052-97.418,140.543-165.6,253.715-165.6A277.183,277.183,0,0,1,1643.39,532.183h0a274.861,274.861,0,0,1,18.06,62.784l.546-.088h32.88c.308.414.1-.557-2.345-13.911l-.042.018A310.3,310.3,0,0,0,1387.713,329.1c-118.385,0-221.464,66.651-273.78,164.379h0a307.648,307.648,0,0,0-33.427,102.378q-.643,4.568-1.153,9.177-.255,2.3-.476,4.619-1.1,11.571-1.351,23.376h-.013v.534c-.037,1.965-.15,3.912-.15,5.886,0,2.541.089,5.061.15,7.587v19.058h587.861q-.434,8.711-1.4,17.318a277.207,277.207,0,0,1-7.333,39.431,275.1,275.1,0,0,1-50.618,101.2q-3.573,4.5-7.345,8.877c-5.459,6.326-11.2,12.46-17.266,18.338a277.232,277.232,0,0,1-400.846-15.809q-3.877-4.382-7.573-8.933-2.464-3.033-4.844-6.139-1.191-1.553-2.36-3.123a276.21,276.21,0,0,1-19.262-29.664q-.967-1.722-1.911-3.462-1.889-3.478-3.681-7.019-2.689-5.311-5.158-10.76-3.289-7.265-6.175-14.768-.72-1.875-1.415-3.764-4.167-11.335-7.374-23.164l-.415.112-.414.112.385-.151.386-.151h-33.187c.091.791.186,1.8.323,2.963a44.256,44.256,0,0,0,1.943,9.166l.055-.021q.708,2.5,1.456,4.987,1.495,4.968,3.146,9.858,4.127,12.224,9.2,23.935,2.027,4.683,4.2,9.278a310.4,310.4,0,0,0,496.518,90.268c1.052-1.018,2.036-2.089,3.072-3.12a313.537,313.537,0,0,0,36.862-44.1,307.027,307.027,0,0,0,22.426-38.087c.108,12.551.177,24.635.177,35.99,0,13.626-.1,26.2-.355,37.272q-.128,5.536-.309,10.553-.046,1.252-.095,2.469c-.164,4.058-.359,7.821-.589,11.258l-.015.288-.013.289c-1.042,32.809-6.076,62.962-14.758,90.352-34.537,108.957-127.783,173.458-266.47,180.515-110.848-.141-206.916-58.084-257.146-155.073-.167-.369-.265-.593-.265-.593l-12.644-.552-23.081-1.008q.122.595.284,1.231c.092.363.195.735.3,1.113.081.282.164.566.253.855q.1.337.215.679a120.4,120.4,0,0,0,5.361,13.092l.006,0c.835,1.62,1.721,3.2,2.579,4.8,56.691,105.617,162.626,168.522,284.546,168.522h.413l.412-.02c141.441-7.078,242.355-71.482,287.222-178.024,15.466-36.724,24.314-78.424,25.81-124.552,2.054-31.169,1.424-86.061.754-144.166C1699.057,717.936,1698.752,690.132,1698.667,662.956Z" transform="translate(219.985 -192.456)" fill="#fff"/></g></svg>