<svg xmlns="http://www.w3.org/2000/svg" width="117.371" height="90.02" viewBox="0 0 117.371 90.02"><g transform="translate(2.098)"><path d="M283.587,13.793a1.258,1.258,0,0,0-.636-1.028L274.393,9.2,270.823.637a1.148,1.148,0,0,0-2.056,0L265.2,9.2l-8.559,3.569a1.149,1.149,0,0,0,0,2.056L265.2,18.39l3.569,8.559a1.148,1.148,0,0,0,2.056,0l3.57-8.559,8.559-3.569A1.261,1.261,0,0,0,283.587,13.793Zm16.044,24-6.847-2.855L289.928,28.1a.918.918,0,0,0-1.645,0l-2.856,6.846L278.582,37.8a.92.92,0,0,0,0,1.645l6.847,2.855,2.856,6.846a.918.918,0,0,0,1.645,0l2.855-6.846,6.847-2.855a.92.92,0,0,0,0-1.645Z" transform="translate(-184.866)" fill="#d5d5d5" opacity="0.32"/><path d="M84.658,46.819l-6.833-13.64A2.176,2.176,0,0,0,75.609,32L42.424,36.23,9.225,32a2.159,2.159,0,0,0-2.2,1.181L.189,46.819a2.163,2.163,0,0,0,1.34,3.052l6.926,1.977V79.885A4.232,4.232,0,0,0,11.666,84l28.687,7.178a8.511,8.511,0,0,0,4.113,0L73.181,84a4.255,4.255,0,0,0,3.211-4.113V51.848l6.913-1.977A2.169,2.169,0,0,0,84.658,46.819ZM11.375,38.7l20.54,2.614-5.467,9.063L8.137,45.147Zm3.45,14.967,12.977,3.7a2.166,2.166,0,0,0,2.455-.969l8.983-14.888V84.33l-24.415-6.1Zm55.2,24.561-24.415,6.1V41.511l8.983,14.9a2.174,2.174,0,0,0,2.455.969l12.977-3.7ZM58.386,50.375l-5.467-9.063L73.473,38.7,76.7,45.147Z" transform="translate(-2.056 -1.409)" fill="#fff" opacity="0.79"/></g></svg>