<svg xmlns="http://www.w3.org/2000/svg" width="109.335" height="87.468" viewBox="0 0 109.335 87.468"><g style="isolation:isolate"><path d="M103.868,64A5.467,5.467,0,0,0,98.4,69.467V94.819L83.06,113.235a2.744,2.744,0,0,1-4.032.188l-2.187-2.187a2.733,2.733,0,0,1-.256-3.57l6.509-8.678a5.467,5.467,0,1,0-8.747-6.56l-9.84,13.12a21.9,21.9,0,0,0-4.373,13.12V137.8a2.733,2.733,0,0,0,2.733,2.733h22.5a2.692,2.692,0,0,0,2.614-1.982,10.2,10.2,0,0,1,1.777-3.707L107.541,111.9a8.209,8.209,0,0,0,1.794-5.125V69.467A5.467,5.467,0,0,0,103.868,64ZM34.987,92.427a5.467,5.467,0,1,0-8.747,6.56l6.509,8.678a2.733,2.733,0,0,1-.256,3.57l-2.187,2.187a2.716,2.716,0,0,1-4.032-.188L10.933,94.819V69.467A5.467,5.467,0,0,0,0,69.467v37.311A8.209,8.209,0,0,0,1.794,111.9l17.784,22.943a10.2,10.2,0,0,1,1.777,3.707,2.677,2.677,0,0,0,2.614,1.982h22.5A2.733,2.733,0,0,0,49.2,137.8V118.667a21.9,21.9,0,0,0-4.373-13.12Z" transform="translate(0 -53.067)" fill="#4e4e4e" opacity="0.4"/><path d="M246.308,16.5A9.6,9.6,0,0,1,254.73,5.74V2.733A2.733,2.733,0,0,1,257.464,0H260.2a2.733,2.733,0,0,1,2.733,2.733V5.757a12.562,12.562,0,0,1,5.433,1.965,2.049,2.049,0,0,1,.256,3.143l-2.99,2.99a2.118,2.118,0,0,1-2.409.342,4.4,4.4,0,0,0-1.76-.376h-5.6a1.437,1.437,0,0,0-.393,2.819l8.559,2.443a10.024,10.024,0,0,1,7.329,8.149,9.591,9.591,0,0,1-8.422,10.763V41a2.733,2.733,0,0,1-2.733,2.733h-2.733A2.733,2.733,0,0,1,254.73,41V37.977a12.562,12.562,0,0,1-5.433-1.965,2.049,2.049,0,0,1-.256-3.143l2.99-2.99a2.118,2.118,0,0,1,2.409-.342,4.4,4.4,0,0,0,1.76.376h5.6a1.437,1.437,0,0,0,.393-2.819l-8.559-2.443A10.024,10.024,0,0,1,246.308,16.5Z" transform="translate(-204.163)" fill="#454545"/></g></svg>