<?xml version="1.0" encoding="utf-8"?>
<!-- Generator: Adobe Illustrator 24.1.3, SVG Export Plug-In . SVG Version: 6.00 Build 0)  -->
<svg version="1.1" id="Layer_1" xmlns="http://www.w3.org/2000/svg" xmlns:xlink="http://www.w3.org/1999/xlink" x="0px" y="0px"
	 viewBox="0 0 249.21 115.82" style="enable-background:new 0 0 249.21 115.82;" xml:space="preserve">
<style type="text/css">
	.st0{fill:#ffffff;}
</style>
<g>
	<path class="st0" d="M37.85,67.96c-0.1,0.18-0.28,0.36-0.56,0.63C37.84,68.51,37.85,68.24,37.85,67.96z"/>
	<path class="st0" d="M38.5,88.78l0.09,0c-0.09-0.09-0.18-0.19-0.18-0.28C38.32,88.69,38.41,88.69,38.5,88.78z"/>
	<path class="st0" d="M29.63,59.85c0.09,0.18,0.27,0.01,0.46-0.08C29.64,59.66,29.73,59.67,29.63,59.85z"/>
	<path class="st0" d="M57.01,38.72l-0.09,0c0,0.18-0.1,0.27-0.1,0.27L57.01,38.72z"/>
	<path class="st0" d="M39.26,87.61l-0.36-0.1c0.09,0.09,0.18,0.09,0.36,0.19L39.26,87.61z"/>
	<path class="st0" d="M37.85,67.96c0.64,0.01,1.02-0.62,1.21-1.25c-0.18,0.09-0.37,0.17-0.55,0.17
		C38.31,67.7,38.51,67.06,37.85,67.96z"/>
	<path class="st0" d="M43.18,91.99c0.01-0.27,0.1-0.36,0.01-0.36c-0.27-0.28-0.44-0.74-0.9-0.75
		C42.37,91.42,42.82,91.61,43.18,91.99z"/>
	<path class="st0" d="M29.42,48.53c-0.01,0.46-0.01,0.64,0.08,0.73C29.5,48.99,29.51,48.71,29.42,48.53z"/>
	<polygon class="st0" points="34.22,71.26 34.22,71.35 34.31,71.26 	"/>
	<path class="st0" d="M40.62,87.73c-0.37-0.01-0.18-0.1-0.45-0.37C40.07,87.72,40.35,87.73,40.62,87.73z"/>
	<path class="st0" d="M42.31,89.78c-0.01,0.36,0.26,0.55,0.53,0.65C42.85,90.06,42.67,89.88,42.31,89.78z"/>
	<path class="st0" d="M38.03,85.12c0.08,0.37,0.17,0.73,0.62,0.83l0.02-1C38.3,85.31,38.39,85.31,38.03,85.12z"/>
	<polygon class="st0" points="34.68,71 34.68,71 34.69,71 	"/>
	<path class="st0" d="M34.68,71c-0.18,0.09-0.28,0.18-0.37,0.27C34.59,71.27,34.77,71.27,34.68,71z"/>
	<path class="st0" d="M34.87,70.73c0.36,0.1,0.55-0.08,0.64-0.26C35.34,70.37,35.15,70.46,34.87,70.73z"/>
	<path class="st0" d="M35.52,70.47l0.09,0l0-0.09C35.61,70.38,35.61,70.47,35.52,70.47z"/>
	<path class="st0" d="M52.8,94.38c-0.37,0.17-1.02,0.43-1.19,0.07c-0.26-0.83-0.99-0.48-1.07-1.03c-0.08-0.46-0.44-0.65-0.81-0.75
		c-0.36-0.19-0.54-0.56-0.99-0.57c-0.09-0.09-0.18-0.28-0.17-0.46c0.2-0.64-0.8-1.11-1.16-1.12c-0.64-0.11-0.71-0.93-1.35-1.03
		c0,0-0.52-1.29-1.33-1.67l-0.26-0.37c0.02-0.82-0.71-0.75-1.06-1.67c-0.17-0.37-0.97-1.39-1.88-1.68
		c-0.88-1.75-0.44-0.92-1.32-2.22c-0.62-0.93-1.7-1.5-1.86-2.5l-0.37,0.08c0-0.09-0.09-0.18,0-0.27c0.38-0.63-0.63-0.2-0.98-1.3
		c0.19-0.36,7.06-5.69,7.15-5.69c1.1-0.16,3.42-1.84,3.51-2.11c0.48-0.9,1.56-0.61,2.23-1.78c0.95-1.62,3.97-2.11,3.51-6.31
		c-0.27-0.19-0.54-0.28-0.72-0.38c-3.11,0.48-13.09,10.3-18.59,11.37c-0.26-0.65-0.16-1.1,0.13-1.64c-0.36-0.19-0.45-0.29-0.26-0.46
		c0.56-0.54,3.92-3.84,4.56-4.01c0.01-0.36,0.58-1.45,0.93-0.8c-0.09,0.18-0.46,0.26-0.38,0.63c0.37-0.08,0.65-0.35,0.75-0.71
		c0.19-0.27,2.24-2.5,2.25-2.78c-0.08-0.55,0.47-0.81,0.85-1.17c0.56-0.72,1.22-1.43,1.6-2.25c0.29-0.54,0.55,0.01,0.57-0.99
		c-0.19,0.18-0.09,0.09-0.27,0.09c0.18-0.09,0.09-0.09,0.27-0.09c0,0,1.86-1.79,4.04-5.39c4.54-7.2,2.94-5.32,4.08-7.39
		c0.66-1.17,1.82-4.16,2.09-3.97c-0.01,0.27-0.29,0.54,0.07,0.91c1.33-2.35,1.54-3.89,1.54-3.89l-0.09-0.09
		c0-0.09,0.09-0.18,0.1-0.27c0.96-1.99,5.79-14.38,5.74-16.39c0-0.18,0.01-0.37,0.1-0.45c0.37-0.36,0.32-2.18,0.33-2.64
		c-0.06-1.64,0.79-2.63,0.72-3.82c0.01-0.64,0.76-5.55,0.62-7.56C64.1,1.91,55.66-0.46,51.7,1.01c-3.77,1.38-1.65,0.42-5.16,2.44
		c-11.09,6.7-17.01,39.69-17.12,45.07c0.44,0.56-0.88,6.73-0.99,7.83c0.56-0.72,0.31-1.64,0.77-2.08c0-0.09-0.09-0.18,0.01-0.27
		c0.09,0.09,0.09,0-0.01,0.27c-0.24,2.46-0.94,5.45-0.3,5.56c0.2-0.54-0.06-1.28,0.67-1.72c0.18,0.09,0.64,0.01,0.72,0.38
		c-0.19,0.18-0.37,0.36-0.65,0.53c0.63,0.56,0.45,0.47,0.44,0.74c-0.21,1.09-0.21,1.27-0.04,1.64c-0.18,0.09-0.37,0.08-0.55,0.17
		c-0.18,0.09-0.28,0.27-0.55,0.17c-0.27-0.19,0.1-0.64-0.35-0.83c-0.11,0.91-0.13,1.64-0.14,2.46l0.81,0.47
		c0.37-0.27,0.01-0.46-0.08-0.64c0.19-0.27,0.28-0.45,0.47-0.63c0-0.09,0.01-0.27,0.19-0.18c0.16,0.92,0.23,1.83-0.33,2.73
		c0.34,0.92,0.14,1.83-0.06,2.74c-0.37,0.08-0.83,0.35-1.28,0.06c-0.12,1.09-0.23,2.37-0.52,2.91c0-0.18,0.24-2.46,0.15-2.64
		c-0.57,0.99-0.47,0.9-0.74,4.73c-0.55,0.35-7.51,5.5-8.35,6.39c-0.75,0.9-0.83,0.16-1.66,0.88c-1.95,1.78-5.98,6.62-6.35,6.98
		C8,89.77,6.48,92.47,3.92,96.8c-3.22,5.4-1.67,5.71-2.37,8.25c-0.2,0.54-1.01,4.36-0.29,5.1c0.45,0.47-0.47,0.63-0.39,1.18
		c0.14,1.92,1.1,3.86,3.02,3.9c2.56-0.04,2.61-2.59,2.72-3.41c0.2-0.82-0.24-1.37-0.87-1.84c0.17-7.75,0.96-6.37,3.08-11.61
		c-0.09-0.18-0.08-0.46-0.17-0.73c0.64-0.26,0.56-0.72,1.14-2.16c0.1-0.27,0.2-0.64,0.48-0.9c0.28-0.27,0.11-0.64,0.2-0.91
		c0.1-0.64,6.97-10.25,13.66-15.77c0.09,0,0.27,0.19,0.27,0.1c0.28-0.08,0.46-0.17,0.56-0.54c-0.18,0-0.27,0.09-0.37,0.08
		c0.58-1.27,1.29-0.34,1.75-0.87c0.28-0.36,0.55-0.35,0.92-0.35c0.04,2.19-0.46,0.26-0.42,2.82c0.09,0,0.18,0,0.37-0.08
		c0.08,0.27,0.09,0.18,0.04,2.19c-0.35-0.46,0.04-1.73-0.41-2.11c-0.01,0.55,0.16,1.1-0.13,1.55l0,0.27
		c0.26,0.46,0.07,0.91,0.06,1.37c-0.01,0.46-0.02,1,0.24,1.56c0.28-0.54-0.07-1.19,0.4-1.82c-0.02,0.82-0.03,1.37-0.13,2.01
		c-0.01,0.64-0.65,0.35-0.39,1.18c0.09,0,0.18,0,0.37-0.08c0.08,0.55,0.07,1.1,0.06,1.64c-0.11,1-0.31,2.56-0.24,3.38
		c-0.01,0.36-0.12,9.11-0.22,9.29c1.32,6.69,2.26,5.34,3.86,7.11c2.14,2.33,4.67-0.9,4.53-2.55c1.4-5.72-0.56-16.53,0.49-18.42
		c0.45,0.19,0.63,0.65,0.99,0.75c0.28-0.18,0.91,0.29,0.36,0.37c0.25,1.1,1.07,1.03,1.61,1.49c0.27,0.28,3.23,2.53,3.59,2.63
		c-0.26-0.56-0.8-0.93-1.16-1.39c-0.54-0.47-0.63-0.29-1.26-0.67l0.09,0c-0.45-0.37-0.9-0.75-1.07-1.3c-0.17-0.37-0.8-1.2-1.33-1.67
		c-0.27-0.19-1.25-1.3-1.15-1.58c0.19-0.36,0.01-0.55-0.34-1.29c0.82,0.29,0.7,1.29,1.87,2.05l0.01-0.46
		c0.36,0.1,0.64,0.01,0.72,0.38c0.89,1.02,0.89,0.84,0.7,1.2c-0.27-0.1-0.45-0.19-0.72-0.2c0,0.09,0.98,1.21,1.07,1.3
		c0.09,0.18,0.27,0.28,0.45,0.1l-0.08-0.37c0.37-0.08,1,0.39,0.99,0.66c0.08,0.28,0.55,0.01,0.54,0.38
		c-0.19,0.18-0.37,0.36-0.65,0.53l1.34,1.22c0.09-0.09,0.28-0.18,0.37-0.17l0.62,0.74c-0.1,0.27-0.28,0.18-0.46,0.08l1.07,1.12
		l0.01-0.27c0,0.09,0,0.09,0.09,0.18c0.09-0.09,0.28-0.18,0.46-0.26c0.09,0.09,0.45,0.28,0.36,0.46c-0.57,1.17,0.54,0.19,1.42,2.04
		c0.35,0.56,1.09,0.3,0.89,1.11c0-0.09-0.09-0.19-0.18-0.19c-0.81-0.38-1.79-1.77-3.05-2.35c-0.19,0.18-0.1,0.36,0.08,0.46
		c2.43,1.6,8.57,8.67,10.3,4.97l0.58-1.27C53.97,94.77,54.68,95.88,52.8,94.38z M48.34,68.28c-0.09-0.09-0.09-0.18-0.09-0.18
		C48.71,67.83,48.62,67.92,48.34,68.28z M42.88,71.81c-0.1,0.18,0,0.18-0.28,0.09C42.7,71.72,42.7,71.72,42.88,71.81z M38.61,75.1
		c-0.19,0.27,0,0.09-0.65,0.53C38.07,74.99,38.07,74.99,38.61,75.1z M29.77,57.66c-0.45-0.28-0.17-0.55-0.16-1.01
		C29.97,57.03,29.88,56.75,29.77,57.66z M4.01,114.05c-0.45-0.28-0.08-0.46,0.29-0.73C4.75,113.79,4.28,114.23,4.01,114.05z
		 M27.53,72.58c-0.17-0.46-0.08-0.73,0.03-1.28C27.64,71.76,27.63,72.12,27.53,72.58z M29.36,68.42c0.18,0.19,0.18,0.1,0.08,0.27
		c-0.09,0-0.09,0-0.18-0.09C29.26,68.6,29.35,68.51,29.36,68.42z M28.5,82.91c0-0.18-0.08-0.37-0.17-0.55
		c0.73,0.01,0.62,0.65,0.25,1.1C28.4,83.27,28.58,83.09,28.5,82.91z M28.61,85.92c0.19-0.36,0.73-0.17,0.17,0.37
		C28.61,86.2,28.52,86.01,28.61,85.92z M28.52,82c-0.09,0-0.27-0.19-0.18-0.28c0.28-0.45,0.28-0.27,0.55-0.17
		C28.7,81.73,28.61,81.91,28.52,82z M28.49,79.08l-0.09-0.09c0.28-0.36,0.19-0.27,0.46,0.01C28.67,78.99,28.58,79.08,28.49,79.08z
		 M28.35,77.07c0.1-0.18,0.19-0.36,0.2-0.54C29.44,77.45,27.88,77.69,28.35,77.07z M28.28,71.59c0.36,0.01,0.45,0.28-0.01,0.46
		C28.19,71.77,28.19,71.86,28.28,71.59z M28.48,92.4c-0.18-0.28-0.18-0.19-0.08-0.37c0.09,0.09,0.18,0.1,0.18,0.19
		C28.57,92.31,28.57,92.31,28.48,92.4z M28.59,91.22c-0.27-0.37-0.26-0.65-0.53-0.93c-0.36-0.37,0.39-1.36,0.66-0.99
		C29.17,89.77,29.24,90.59,28.59,91.22z M28.78,69.68l0,0.18C28.69,69.77,28.6,69.77,28.78,69.68c0.56-0.63,0.38-0.54,0.74-0.35
		C29.33,69.7,29.6,69.61,28.78,69.68z M31.34,82.24c0.08,0.28,0.09,0.09-0.1,0.55C31.06,82.42,30.97,82.51,31.34,82.24z M31.5,83.25
		c-0.09,0-0.18,0.09-0.28,0.18c0-0.09,0-0.18,0.1-0.36L31.5,83.25z M31.29,84.61c0.09,0.18-0.28,0.18-0.46,0.08
		C31.02,84.51,31.2,84.43,31.29,84.61z M31.16,86.25l-0.28,0.18C30.63,85.78,30.81,85.79,31.16,86.25z M30.91,89.35
		c0.09,0,0.09,0,0.18-0.09c0,0.09,0.09,0.18,0.09,0.28C31,89.53,31.09,89.63,30.91,89.35z M31.27,85.61c-0.18,0-0.08-0.27-0.08-0.46
		c0.18,0.1,0.27,0.1,0.27,0.19C31.54,85.53,31.36,85.62,31.27,85.61z M31.81,69.11c0-0.09-0.09-0.09,0.18-0.18c0,0,0,0.09,0.09,0.18
		L31.81,69.11z M32,60.08c0.28-0.18,0.28-0.09,0.36,0.01C32.09,60.26,32.09,60.17,32,60.08z M39.73,65.36
		c-0.18-0.28,0.01-0.36,0.19-0.36c0,0,0,0.09,0.09,0.18L39.73,65.36z M48.22,6.14c-0.66,1.08-2.71,2.86-3.65,4.39
		c-0.1,0.18-0.19,0.36-0.37,0.27C44.67,9.71,47.21,6.21,48.22,6.14z M44.19,10.89c0,0.09,0.09,0.09-0.1,0.18
		C44.1,11.07,44.1,10.97,44.19,10.89z M42.95,13.32c0,0.18,0.09,0.09-0.19,0.54c-0.09,0-0.09,0-0.09-0.09
		C42.77,13.23,42.77,13.41,42.95,13.32z M34.5,45.81c0.19-0.36,0.2-0.73,0.2-1c-0.08-0.73,0.4-1.73,0.7-3.09
		c-0.18,0-0.27-0.01-0.37,0.08l0-0.18c0.09,0,0.18,0.09,0.27,0.1c0.01-0.37-0.08-0.64,0.11-1c1.05-2.17,0.52-3,1.66-9.36
		c0.41-2.09,1.06-2.53,1.45-3.71c2.23-6.16,1.81-7.63,5.52-14.66c0.48-1.08,1.59-1.88,1.78-2.24c0.38-0.63,0.67-1.26,1.22-1.71
		c0.29-1,1.77-1.79,2.81-3.23c3.02-0.39,1.48-1.06,4.05-1.55c2.84-0.58,4.47,0.28,5.17,1.3c2.39,3.34,1.17,13.35,0.98,13.98
		c-0.79,2.72-0.51,2.45-0.34,2.91c-0.55,0.35-0.45-0.1-0.97,2.81c0.09,0,0.18,0.19,0.27,0.28c-0.19,0.36-0.38,0.63-0.57,0.9
		c0,0.09-0.01,0.27-0.1,0.27c-1.11,0.52-0.68,1.9-1.25,2.8c-0.19,0.27-0.1,0.45,0.17,0.64c0-0.09,0-0.09-0.09-0.28
		c0.09,0.09,0.09,0.09,0.09,0.28c-0.29,0.82-3.4,9.51-3.97,10.5c-2,3.7-15.81,26.58-19.39,27.32C33.58,67.32,33.93,46.89,34.5,45.81
		z M35.02,80.68c0.36,0.37,0.44,0.74,0.53,1.02C35.19,81.5,35.01,81.22,35.02,80.68z M35.22,75.57c-0.18-0.19-0.36-0.37-0.53-0.65
		c1.18,0.12,0.18,0.28,1.18,0.3L35.22,75.57z M36.29,76.78c-0.45-0.1-0.07-0.91,0.37-0.45C36.66,76.7,36.47,76.88,36.29,76.78z
		 M36.45,82.35c0.18,0.09,0.18,0,0.27,0.28C36.53,82.63,36.44,82.44,36.45,82.35z M38.76,81.12c-0.09,0.09-0.19,0.09-0.19,0.18
		l-0.18-0.19C38.67,80.94,38.58,80.94,38.76,81.12z M37.86,84.48l-0.18-0.1c0,0,0.1-0.18,0.18-0.09L37.86,84.48z M38.79,83.77
		c-0.17-0.55-0.8-0.75-0.88-1.48c0.27,0.1,0.54,0.28,0.81,0.38C38.44,83.21,39.34,83.6,38.79,83.77z M39.23,84.42
		c0.09,0,0.09,0,0.18-0.09C39.68,84.79,39.5,84.7,39.23,84.42z M39.2,81.77c0.18,0.19,0.27,0.28,0.45,0.38
		C39.28,82.05,39.1,82.04,39.2,81.77z M40.05,84.34c0.09,0,0.18,0.1,0.18,0.19C40.14,84.62,40.05,84.44,40.05,84.34z M42.04,85.12
		c-0.18-0.09-0.36-0.19-0.54-0.37C41.96,84.66,41.96,84.66,42.04,85.12z M40.76,85.36c-0.36-0.1-0.18-0.28,0.01-0.46
		C41.04,85.28,40.95,85.37,40.76,85.36z M41.01,86.65l0-0.09c0-0.09,0.09-0.09,0.18-0.09c0,0,0,0.09,0.09,0.19L41.01,86.65z
		 M41.22,85.47c0.64,0.1,0.64,0.1,0.71,0.93C41.65,86.48,41.39,85.65,41.22,85.47z M43.37,87.34l-0.09,0
		c-0.27-0.1-0.54-0.19-0.45-0.37c0.19-0.18,0.36,0.19,0.45,0.37c0.19-0.27,0.47-0.54,0.64-0.17C43.91,87.44,43.64,87.62,43.37,87.34
		z M44.87,89.38c-0.18-0.28-0.09-0.19,0.01-0.37C44.97,89.2,44.97,89.2,44.87,89.38z M49.11,96.22c-0.9-0.48-1.17-0.57-1.17-0.94
		c-0.28,0.18-0.55-0.1-0.73-0.2c0.28-0.08,0.46,0.1,0.73,0.2C48.67,95.12,49.21,95.77,49.11,96.22z M52.5,95.47
		c-0.27-0.28-0.18-0.28,0.01-0.36c0.09,0.09,0.09,0.28,0.17,0.37C52.68,95.48,52.59,95.56,52.5,95.47z"/>
	<path class="st0" d="M51.98,94.27c-0.09-0.18,0-0.18-0.18-0.09C51.88,94.36,51.79,94.36,51.98,94.27z"/>
	<path class="st0" d="M37.01,68.95c-0.46-0.01-1.48,0.97-1.4,1.43C35.7,70.29,37.01,69.13,37.01,68.95z"/>
	<path class="st0" d="M28.77,65.94c0.09-0.09,0.09-0.09,0.1-0.18C29.15,65.4,28.69,65.67,28.77,65.94z"/>
	<path class="st0" d="M171.3,60.39c-0.11,1.02,0.07,2.02,0.85,2.77c3.39,3.57,7.79-2.32,4.51-4.35
		C174.88,57.57,171.52,58.32,171.3,60.39z"/>
	<path class="st0" d="M233.06,90.28c0.08,0,0.15,0.08,0.23,0.08l0.01-0.31C233.14,90.13,233.14,90.2,233.06,90.28z"/>
	<path class="st0" d="M247.19,101.2c-3.54-0.05-3.95-1.16-3.95-1.16c-3.62-4.69-4.2-10.17-3.8-10.86c-0.15-0.24-0.3-0.47-0.37-0.71
		c0.87-0.99-0.11-2.17,0.55-4.1c0.09-0.31,0.32-0.54,0.02-0.85c0,0,0-0.16,0.08-0.23c0.32-0.38,0.33-0.85-0.05-1.17
		c1.03-0.91,0.88-1.22,0.67-2.08c0.16-0.15,0.56-0.61,0.33-0.77c-0.15-0.24,0.04-2.02,0.2-2.32c0.25-0.62,0.86-3.78,0.74-5.49
		c-5.46-5.78-15.04,17.98-17.44,17.54c-3.11-3.32,0.46-21.62,6.19-24.6c0.63-0.37,1.1-0.75,1.66-1.28c0.77,0.25,3.28-1.01,3.71,0.47
		c0.07,0.31,1.29,1.5,1.51,1.66c0.47,6.83,3.64,3.72,3.2,2.63c1.77-3.06-1.24-7.32-2.01-7.49c0.08,0.16,0.07,0.31,0.15,0.39
		c-0.46-0.16-0.54-0.24-0.6-0.87c-1.69-0.97-2.22-1.44-3.38-1.47c-5.35-0.04-11.54,6.58-13.55,10.1c-2.94,5.11-4.46,9.44-5.01,12.98
		c-10.43,9.68-17.66,22.05-9.35-1.28c0.49-1.31,1.79-4.15,1.71-3.99c0.41-0.92-0.15-0.47,0.02-1.16c1.27-5.09,1-3.23,1.43-8.96
		c-1.64-3.14-1.04-2.12-3.41-3.48c-2.78-0.6-5.57-0.43-8.03,2c-0.71,0.68-0.86,0.29-1.59,1.83c-0.49,1.07-1.93,3.06-2.26,4.14
		c-0.16,0.38-0.32,0.69-0.56,0.92c-0.34,0.46-0.69,1.45-1.03,2.53l0,0c0,0-0.27,0.7-0.79,0.75c-0.44,0.04-0.46-0.66-0.46-0.87
		c0-0.02,0-0.04,0-0.05c0,0,0-0.01,0-0.01l0,0c0.01-0.58-0.05-0.7-0.23-0.93c-0.08-0.08-0.15-0.24-0.15-0.31
		c0.17-0.54-0.13-1.01-0.04-1.47c0.08-0.15,0.01-0.9,0.01-0.9s-0.07-0.69-0.66-1.21c-1.53-0.96-1-0.83-2.7-0.52
		c-1.04,0.19-1.19,1.53-1.16,3.31c-0.86,10.61-0.29,7.96-0.15,8.78c-0.81,1.14-2.02,2.78-3.9,5.2c-1.52,1.98-5.23,5.32-5.15,5.24
		c-1.35,1.21-0.88,1.07-2.83,1.57c-0.23-0.01-0.86,0.21-1.39-0.26c-3.43-2.79-1.36-1.81-2.69-4.94c0-0.15-0.07-0.31-0.07-0.47
		c-0.51-5.92,0.16-10.04,0.88-12.93c0.05-0.21,0.04-0.43,0.09-0.63c0.05-0.21,0.17-0.38,0.22-0.57c0.05-0.16,0.14-0.31,0.18-0.47
		c0.04-0.13,0.03-0.27,0.06-0.39c0.04-0.15,0.07-0.35,0.11-0.5c0.52-1.79,0.81-2.85,0.2-3.54c-0.03-0.03-0.09,0-0.14-0.06
		c-0.03-0.03,0-0.08-0.06-0.13c-0.24-0.2-0.59-0.32-1.04-0.46c-0.08-0.02-0.15-0.08-0.24-0.11c-0.09-0.02-0.19,0.02-0.29,0
		c-0.13-0.03-0.25-0.13-0.4-0.16c-1.08-0.18-2.56-0.13-2.97,0.94c-0.4,1.02-0.7,1.24-1.09,2.13l0,0c0,0,0,0,0,0
		c-0.14,0.32-0.3,0.73-0.48,1.29c-0.64,1.69-1.86,4.84-3.39,8.34c-0.02,0.04,0,0.08-0.02,0.12c-0.02,0.03-0.06,0.07-0.08,0.1
		c-0.22,0.5-0.44,1-0.67,1.51c-0.01,0.02-0.03,0.02-0.05,0.04c-0.02,0.03,0.01,0.04,0,0.05c-0.02,0.04,0.01,0.09-0.01,0.14
		c-0.01,0.03-0.1,0.04-0.11,0.06c-1.34,2.93-2.84,5.95-4.36,8.41c-0.04,0.06-0.08,0.04-0.14,0.15c-0.06,0.11-0.08,0.2-0.11,0.25
		c-0.59,0.94-1.13,1.71-1.71,2.43c-0.04,0.05-0.01,0.08-0.08,0.17c-0.07,0.1-0.12,0.07-0.16,0.12c-0.94,1.12-1.85,1.9-2.7,2.19
		c-2.52-1.68-1.86-3.61-2.96-6.5c-0.07-0.23-0.15-0.39-0.14-0.7c0,0,0-0.15-0.07-0.16c-0.31-0.16-0.22-0.39-0.3-0.63
		c0.24-0.38,0.48-0.45,0.25-0.85c-0.22-0.55,0.02-1.01-0.05-1.32c-0.21-0.86,0.42-1.54,0.43-1.93c-0.14-4.19,0.56-9.05,0.7-10.34
		c0.21-2.05-2.04-1.47-4.37-2.48c-0.08-0.03-0.12-0.14-0.2-0.18c-0.08-0.04-0.19-0.01-0.27-0.05c-0.35-0.19-0.71-0.42-1.05-0.71
		c-0.86-0.73-1.7-1.91-2.34-2.92c-0.04-0.06-0.07-0.11-0.11-0.17c-0.1-0.15-0.22-0.03-0.3-0.17c-0.06-0.1,0.03-0.42-0.11-0.65
		c-0.2-0.33-0.39-0.51-0.49-0.69c-0.17-0.29-0.41-0.58-0.65-0.82c-0.41-0.4-1.02-0.54-1.27-0.18c-0.01,0.01-0.01,0.01-0.02,0.02
		c-0.26,0.38-0.63,1.26-0.84,1.7c-1.19,2.41-2.87,5.77-3.99,8.02c-0.15,0.3-0.1,0.56-0.16,0.69c-0.13,0.25-0.17,0.19-0.27,0.39
		c-0.05,0.1-0.01,0.33-0.15,0.59c-0.06,0.1-0.22,0.07-0.3,0.19c-0.04,0.07-0.1,0.2-0.13,0.27c-0.1,0.19-0.19,0.28-0.19,0.28
		s-4.94,9.04-8.23,8.97c-2.97-0.06-3.7-6.66-3.88-8.76c0.97-1.5,2.56-3.77,3.52-5.04c3.06-4.04,8.83-13.24,5.57-16.41
		c-1.06-1.03-1.76-1.05-4-1.48c-0.62-0.09-0.78,0.22-1.79,0.43c-1.48,0.36-1.33,0.75-2.99,2.03c-0.63,0.45-0.63,0.61-1.11,1.3
		c-0.25,0.34-0.62,0.69-0.86,1.04c-0.26,0.39-0.37,0.77-0.61,1.17c-3.48,6.03-4.06,13.52-2.79,19.54c-1.1,1.33-2.16,2.59-3.01,3.57
		c-0.06,0.07-0.12,0.03-0.18,0.1c-0.05,0.05-0.05,0.16-0.07,0.19c-0.41,0.46-0.75,0.84-1.02,1.12c-0.69,0.72-1.36,1.4-2.02,2.02
		c-0.11,0.1-0.12,0.23-0.23,0.33c-0.07,0.07-0.14,0.01-0.32,0.16c-1.62,1.4-3.33,2.29-5.6,2.14c-0.45-0.03-0.06-0.93-0.6-1.1
		c-0.16,0.31-0.16,0.31-0.55,0.3l0.17-0.69c-0.92-0.33-1.17,0.13-1.22-0.73l0.71-0.45c-0.29-0.94-0.3-0.47-0.2-1.71l0.55-0.22
		c-0.14-0.7,0.11-1.47-0.34-2.1l-0.31,0.07c0-0.15-0.07-0.39,0.17-0.46c0.55-0.22,0.19-1.55-0.11-1.86
		c-0.01,0.31-0.01,0.54-0.25,0.85l-0.14-0.78l0.39-0.07c0.25-0.61,0.26-4.96,0.19-5.27c-0.31,0.07-0.15,0-0.47,0.22
		c-0.22-0.55,0.32-0.46,0.02-0.85c-0.23-0.31,0.19-1.47,0.19-1.47c-0.37-0.63,0.74-1.77-0.25-2.87c1.09-0.44,0.42-1.62,1.22-2.69
		c-0.2-1.24,0.14-2.71,1.09-3.62c0.48-0.53,0.49-1.23,0.59-1.93l-0.31-0.08l-0.06-0.62l0.31-0.23c1.28-1.52,0.8-1.14,0.11-1.32
		c-0.15-0.39,0.09-0.62,0.33-0.92l0.62-0.14c0.32-0.46,0.49-1,0.58-1.54c-0.23-0.16-0.62-0.09-0.69-0.4
		c0.55-0.3,0.86-0.37,0.87-0.76c-0.39-0.01-0.39-0.01-0.78,0.3c0.09-0.54,0.32-0.54,0.79-0.68c0.32-0.38,0.32-0.38-0.14-0.78
		c3.41-11.02,2.05-8.8,7.55-8.6c1.32,0.11,1.86-0.04,2.48,0.13c1.31,0.42,1.93,0.12,2.47,0.29c0.62,0.09,1.54,0.58,2.17,0.2
		c0.55-0.3,0.37,0.71,0.93,0.02l0.38,0.24c0.38,0.24,0.85-0.06,0.93,0.02l-0.32,0.38c0.86-0.06,1.16,0.03,2.11-0.5l-0.54,0.07
		c0.24-0.07,0.39-0.07,0.54-0.07c0.68,0.71,1.09-0.13,2.24,0.2l-0.32,0.53c0.23,0.16-0.08,0.15,1.25-0.28
		c0.47-0.14,3.17,0.53,3.87,0.08c0.3,0.55,2.4,0.28,2.79-0.1c1.3,0.73,2.55,0.6,3.09,0.38c0.69,0.64,2.4,0.52,2.79,0.29
		c0.08,0,2.09,0.2,2.09,0.04c0.01-0.39,0.71-0.37,1.02-0.36c0.07,0.31-0.39,0.22-0.32,0.54c1.09,0.02,0.77,0.02,1.18-0.6
		c0.66,1.64,1.48-0.2,2.16,0.36c0,0.15-0.16,0.23-0.01,0.39l1.17-0.21c0.46,0.24,0.94-0.13,1.32-0.05l0-0.23
		c-0.45-0.4-6.5-0.45-7.43-0.78c-0.15-0.39-0.69-0.33-0.85-0.1c-2.11,0.73-3.17-0.53-0.92-0.41c0.62,0.01,1.24-0.13,1.86,0.19
		l-0.08,0.31c1.42-1.29,1.92,0.97,2.1-0.34c0.31-0.07,0.54,0.01,0.85,0.1l0.15,0.31l0.47-0.3c0.15,0.24,0.38,0.24,0.54,0.01
		l0.24-0.23c0.39,0.09,0.38,0.4,0.77,0.17c1.25-0.59,0.38,0.55,1.39,0.42c0-0.08-0.08-0.08-0.07-0.16c0.79-0.6,1.56-0.51,2.17-0.11
		l0.31-0.23c0.76,0.71,2.49-0.18,3.4,0.77c0.78-0.14,0.55-0.14,1.08,0.26c0.54-0.07,0.39-0.07,0.62-0.22l-0.07-0.31
		c0.39-0.22,0.32-0.23,0.7-0.06c-0.16,0.15-0.39,0.15-0.48,0.45c0,0.15-0.16,0.23-0.32,0.3c-0.08,0.08-0.08,0.23-0.16,0.31
		c0.53,0.48,1.55,0.19,2.18-0.18l1,0.18c0.71-0.29,0.39-0.22,1.17-0.28c-1.31-0.57-1.4,0.2-2.94-0.14l0.38,0.16
		c-0.24,0.23-0.47,0.22-0.38-0.16l0.32-0.61c0.62,0.17,4.49,0.17,4.88,0.41c-0.23,0.15-0.54,0.14-0.4,0.54
		c1.23,0.49,1.64-0.35,2.96-0.48l0.22,0.39c0.16-0.15,0.32-0.15,0.54-0.07c0.31,0.08,0.47-0.22,0.79-0.45
		c0.68,0.63,0.77,0.33,0.31,0.01l0.86-0.21c-0.31-0.32-0.7,0.14-1.08-0.1c0.16-0.23,3.74-0.77,3.97-0.84
		c-1.03,0.98-1.01,0.21-2.11,0.81c1.7,0.19,2.01,0.12,2.33-0.18c0.17-0.54,0.17-0.54,0.32-0.61l0.53,0.48
		c0.23-0.07,0.54,0.09,0.7-0.3c-0.23-0.24-0.55,0.14-0.77-0.02c-0.07-0.39,0.39-0.15,0.63-0.45c0.46,0.32,0.94-0.6,1.09-0.06
		l-0.32,0.38c0.39,0.01,4.97-0.36,7.17-1.71l-0.22-0.39c0,0.16-0.24,0.23-0.39,0.07c0.16-0.23,0.32-0.3,0.55-0.3
		c2.64,0.06,5.02-2.76,6.94-1.79l0.24-0.46c0-0.16-0.23-0.24-0.07-0.39l1.09-0.29l0.38,0.32c0.56-0.61,0.09-0.85,0.87-0.99
		l0.99,0.64c1.26-0.98,1.25-0.52,1.19-1.06c-0.07-0.23,0.64-1.15,0.95-0.91c0.31,0.24,0.31,0,0.4-0.38
		c0.31-0.15,1.64-0.66,2.67-1.57c-0.08,0.08-0.39,0.07-0.62,0.06l-0.15,0c0.08-0.08,0.08-0.08,0.15,0c-0.07-0.47,0.79-0.6,0.94-0.21
		c0.23,0.01,2.04-1.12,2.2-1.27l0.54,0.09l-0.14-0.86c0.39-0.07,0.69,0.09,0.92,0.17c1.65-1.13,1.02-0.6,2.53-1.96l0.38,0.24
		c0.08-0.23,0.16-0.38,0.09-0.54c-0.37-0.63,0.37-2.71-1.65-2.36c-1.32,0.2-0.32,0.38-6.62,4.82l0.22,0.31
		c-0.39,0.38-3.76,1.78-4.07,1.93c-2.75,1.8-3.2,1.25-3.6,1.47l0.31,0.08c-0.32,0.46-0.63,0.45-3.05,1.18L183,40.05l-0.31-0.24
		c-3.67,1.08-5.69,1.51-5.69,1.51l-0.32,0.61c-4.03-0.09,4.9-0.82-16.1,2.29l0.46,0.32l-0.7-0.01l0.24-0.3l-3.26,0.09
		c1.46,0.73,1.54,0.34,1.86,0.19l0.77,0.25c-0.09,0.7-1.85-0.27-3.35,0.7l-0.07-0.46l-0.7,0.06c0.39-0.3,0.86-0.45,1.33-0.59
		c0.08,0,0.15,0,0.16-0.15c-1.48,0.12-3.57,0-3.57,0.23c-0.23-0.01-0.15,0-0.31-0.01l0.08-0.08c-1.08-0.26-5.58-0.2-5.89,0.03
		c0.31,0.16,0.3,0.47,0.37,0.78c-0.31,0-1.32,0.13-1.47-0.11c-3.01-0.76-3.64-0.16-3.7-0.86c-0.02,0.85-5.04,0.05-5.35-0.11
		c0.7-0.14,1.47,0.03,2.18-0.19c-0.31-0.08-6.89-0.54-7.13-0.31c2.4,0.28,3.71,0.39,4.02,0.4c-0.39,0.22-5.12,0.12-5.65-0.43
		l1.16-0.05c-1.7-0.19-5.03-0.42-5.5-0.43l-0.01,0.39l-1.16-0.1l0.71-0.37c-3.71-0.47-12.15-1.04-15.95-1.2l5.19-10.67
		c-1.01-3.67-3.94-0.78-6.18,2.35c0.07,0.47-0.32,0.38-0.72,1.3l0.23,0.08c-0.01,0.31-0.31,0.07-0.39,0.3l0.23,0.31
		c-1.05,1.84-0.63,0.22-1.27,1.45l0.23,0.32c-0.34,1.54-0.09,0.62-0.74,1.84c-0.47,0.15-0.63,0.45-0.87,0.84l0.07,0.39l-0.4,0.69
		l0.3,0.55c-16.37,4.15-14.48,2.64-23.12,11.29c-0.32,0.3-0.72,1.15-1.2,1.53c-0.48,0.45-1.05,1.84-0.9,2.15
		c0.14,0.55,0.37,0.94,0.9,1.18c1.46,0.73,1.06,1.19,2.19-0.65c0.24-0.46,0.78-0.29,0.56-0.84c0-0.15,0.8-1.22,0.88-1.3
		c0.48-0.53,0.8-1.15,1.42-1.37c0.16-0.07,0.24-0.23,0.32-0.38c0.09-0.46,0.71-0.76,1.03-1.14c0.56-0.84,1.02-0.52,1.57-0.97
		c1.03-0.83,1.03-1.22,1.89-1.43c1.17-0.44,1.19-1.22,2.12-1.12c0.31,0.01,3.29-1.71,3.45-1.86c0.31-0.07,4.3-1.46,6-1.34
		c0.47-0.07,0.86-0.13,1.32-0.12c-0.59,2-0.16,0.15-1.47,3.23c0.22,0.39,0.47,0.09,0.7-0.22c0.06,0.7-0.26,1.31-0.65,1.61
		c0-0.08-0.07-0.16,0-0.23c0.09-0.31,0.41-0.84,0.02-0.85c-0.31,0.07-0.24,0.23-0.4,0.46c-0.32,0.54-0.41,1.23-0.81,1.77
		c-0.4,0.61-1.02,0.68-0.25,0.69c-0.66,2.08-1.23,3.23-1.47,3.53c0,0.02,0,0.04-0.01,0.06c0-0.14-0.07-0.22-0.22-0.23l-0.09,0.39
		l0.31-0.15c-0.03,0.59-0.19,1.1-0.49,1.54l-0.75,2.46l-0.31,0.15c0-0.23,0.09-0.46-0.06-0.85c-0.67,2.16-0.84,2.85-0.84,2.85
		c0.39,0.01,0.17-0.54,0.47-0.38c-0.43,2.16-0.27,1.7-0.51,2.01l-0.31-0.08c-0.07,0.37-0.24,0.76-0.19,1.63
		c-0.15,0.07-0.07-0.08-0.16,0.46c0.05-0.1,0.14-0.2,0.17-0.31c0.01,0.17,0.03,0.34,0.06,0.55c0.07,0.23,0.3,0.39,0.22,0.7
		l-0.78,0.29l-0.53,2.86c0.32-0.23,0.35-1.93,0.75-2.23l0.01-0.47c0.23,0.24-0.44,2.32-0.14,2.79c0.23-0.07,0.31-0.23,0.24-0.46
		c-0.07-0.31,0.16-0.23,0.24-0.38c0.19-1.47,0.97-5.56,1.29-5.87c0.3,0.32-0.66,5.26-0.98,5.87c0.53,0.48-0.09,0.54-0.02,0.85
		c0.14,0.55-0.1,1.08-0.03,1.55l0.48-0.69l-0.1,0.85l-0.38-0.16c-0.63,1.27-1.4,5.7-1.1,6.86c-2.19,2.62-5.48,5.2-6.3,5.77
		l-0.15-0.16c-2.09-3.46-0.12-1.63-3.73-6.82c-0.6-0.94-2.2-2.37-3.34-6.9c-0.15-0.47,0.33-1.08,0.94-0.68
		c1.53,0.88,5.39,6.63,6.72,5.08c1-1.17-1.62-4.47-2.41-5.89c-2.42-4.36-6.61-3.96-8.57-2.84c-1.89,1.12-1.12,1.53-2.06,2.2
		c-0.08,0.08-0.24,0.23-0.24,0.38c0.15,0.24-0.09,0.39-0.09,0.54c0,0.23-0.01,0.47,0.06,0.62c-0.32,1.05-0.43,2.66-0.24,3.91
		c-2.86,2.68-7.27,4.12-7.34,4.19c-0.9-1.57-0.77-7.46-5.17-8.64c-0.62-0.17-1.24-0.11-1.86-0.19c-0.77-0.1-1.32,0.13-1.8,0.74
		c-1.35,1.6-3.41,3.57-4.42,7.04c-2.94,10.33-0.71,11.38-0.71,11.46l0.51,1.56l-0.46-0.4c0.79,2.89,1.73,6.32,6.67,6.97
		c5.72,0.82,6.28-3.59,6.92-4.66c1.52-2.37,0.61-10.22,0.61-10.3c1.8-0.97,2.82-1.26,4.01-2.39c0.95-0.83,1.56-0.28,1.8-1.05
		c0.08-0.08,0.08-0.08,0.16-0.07c0.57-0.06,0.57-0.58,2.23-1.81c0.6,0.99,1.28,2.39,1.28,2.39l2.3,3.76l0,0
		c0.39,0.72,0.91,1.67,1.59,2.91c0.15,0.24-0.09,0.62,0.29,0.78c0.61,0.32-0.25,0.69,0.37,0.94c0.23,0.08-0.09,0.7-0.09,0.77
		c0.15,0.31,0.3,0.63,0.21,0.94c-3.62,2.56-7.07,4.5-8.27,5.79c-0.24,0.23-0.4,0.46-0.79,0.52c-0.16,0.07-0.39,0.3-0.47,0.46
		c-0.17,0.54-1.66,1.28-2.06,2.05c-0.16,0.31-2.24,3.13-2.4,3.28c-1.69,2.99-1.24,3.54-1.65,4.62c-1.55,3.61,4.57,10.95,7.38,10.24
		c1.09-0.29,2.33-0.03,3.19-0.47c1.1-0.44,6.03-2.89,6.14-4.05c0.08-0.23,3.03-3.81,3.19-4.12c4.87-6.56,5.08-16.1,3.5-18.46
		c-0.3-0.47-0.58-1.72-0.58-1.64c0,0,1.25-1.06,5.09-5.12c0.28,1.87,0.73,5.16,0.73,5.33c0.31,0.01,0.23,0,0.46,0.09
		c0.07,0.31-0.32,0.23-0.32,0.38c0.61,3.81,1.48,3.13,1.44,5.15l-0.39-0.08c-0.44,2.63,7.74,4.95,12.28-0.77
		c0.19-0.25,0.37-0.5,0.59-0.81c0.01-0.02,0.1-0.06,0.12-0.1c0.02-0.02,0-0.08,0.02-0.1c0.3-0.42,0.64-0.9,1.16-1.66
		c0.05-0.08-0.01-0.18,0.05-0.27c0.06-0.09,0.17-0.05,0.23-0.14c0.02-0.03,0.02-0.07,0.04-0.09c0.01-0.02,0.04-0.02,0.05-0.04
		c0.31-0.45,0.67-0.97,1.09-1.58c0.61-0.88,1.3-1.88,1.96-2.85c0.04-0.05,0.02-0.15,0.06-0.2c0,0,0.14-0.09,0.19-0.15
		c0.19-0.27,0.37-0.54,0.55-0.81c1.68,4.61,4.58,7.73,8.07,7.44c5.71-0.63,11.52-9.73,14.82-18.53c0,0,0,0,0,0
		c-0.03-0.13,0.12,0.2,0.59,0.79c0.03,0.03,0.05,0.07,0.08,0.1c0.03,0.04,0,0.1,0.04,0.14c0.02,0.03,0.03,0.06,0.05,0.09
		c0.06,0.09,0.28-0.13,0.36-0.05c0.04,0.05-0.05,0.29,0,0.34c0.04,0.05,0,0,0.04,0.05c0.33,0.36,0.75,0.77,1.26,1.2
		c0.02,0.02,0.08-0.03,0.13,0.01c0.05,0.05-0.02,0.13,0,0.15c0.03,0.02,0.07-0.01,0.1,0.02c0.02,0.02,0.04,0.03,0.06,0.05
		c0.03,0.02,0.05,0.04,0.08,0.06c0.5,0.39,1.09,0.79,1.76,1.19c0.37,0.22-2.39,8.44-1.04,17.46c0.41,2.41,2.47,6.39,5.96,6.43
		c0.31,0,3.49,0.03,4.76-1.49c0.32-0.38,0.79-0.53,1.03-0.99c0.47-0.22,0.71-0.61,0.95-0.99c0.24-0.46,0.79-0.6,1.12-1.37
		c1.17-0.36,0.08-0.15,4.39-5.64c0.55-0.61,1.12-1.3,1.36-2.06c0-0.15,0.08-0.23,0.24-0.31c0.21-0.17,0.61-0.97,1.04-1.91
		c0.36,3.28,0.8,6.09,2.9,8.89c1.28,1.65,1.36,1.81,2.12,2.14c1.61,0.81,2.14,1.36,3.78,0.93c1.87-0.5,2.73-0.72,3.99-1.62
		c1.34-0.98,0.54,0.09,2.91-1.95c1.42-1.21,4.34-3.55,5.07-4.85c0.53-0.84,1.43-1.43,2.19-2.19c0.04,0.43,0.13,0.82,0.34,1.28
		c0.07,0.39-0.7,3.94,1.2,5.38c4.73,3.59,3.27-11.41,6.74-17.85c4.37-8.28,4.17-6.58,6.21-7.54c0.71-0.37,1.71-0.04,1.93,0.43
		c1.12,1.96,0.46,4.04-0.29,6.51c-1.08,3.39-5.44,22.21-3.24,24.43c0.9,1.57,2.62,0.68,2.62,0.6c0.62-0.14,1.1-0.6,1.57-0.97
		c1.89-1.59,2.36-1.58,4.1-3.09c0.55-0.53,7.77-7.74,7.94-8.82c0-0.01,0.03-0.05,0.06-0.09c0.64,6.9,5.87,8.92,8.8,5.88
		c1.57-0.66,4.97-3.69,6.69-8.23c0.7-0.22,0.35-1.85,1.27-1.52c-0.16,0.31-0.08-0.16-0.12,1.78c0.32-0.54,0.49-1.23,0.49-1.23
		c0.38,0.4-0.12,1.78-0.14,2.94c-0.15-0.24-0.52,2.55-0.23,3.41c0.15,0.24,0.31,0.08,0.39-0.15c0-0.08-0.07-0.24,0.01-0.31
		c0.24-0.54,0.24-0.54,0.25-0.85c-0.06-0.54,0.1-1.08,0.27-1.7c0.6,0.71,0.13,4.5,0.74,4.98c0.08-0.15,0.09-0.39,0.01-0.54
		c-0.22-0.7,1,0.49-0.01,0.54c-0.08,0.23,0.07,0.39,0.14,0.62l-0.24,0.3l0.22,0.7c0.48-0.76,1.08,0.02,0.45,0.78
		c-0.08-0.08-0.15-0.31-0.38-0.24c-0.01,0.54-0.01,0.54,0.21,0.86c0.15,0,0.31-0.15,0.39-0.07c0.77,0.17,0.51,1.64,0.21,1.01
		c-0.22-0.39-0.22-0.47-0.53-0.55c0.94,3.12,1.38,4.53,3.33,7.13c0.23,0.24-0.16,0.31,0.14,0.55c1.1,0.93,1.98,1.94,3.01,2.18
		C248.63,106.01,249.54,101.25,247.19,101.2z M235.23,61.33c0.08,0.08,0.07,0.31-0.01,0.31c-0.08,0.08-0.23,0-0.46-0.01
		C234.92,61.4,235,61.24,235.23,61.33z M206.39,76.21c0.17-0.62,0.49-1.23,0.58-1.85c0-0.15,0.08-0.23,0.16-0.31
		C207.11,74.9,204.52,83.61,206.39,76.21z M101.44,82.65c0.23,0.31,0.06,0.7-0.02,1.09C101.12,82.95,100.97,82.64,101.44,82.65z
		 M190.22,39.43c-0.01,0.31-0.24,0.38-0.55,0.38C189.83,39.5,190.06,39.58,190.22,39.43z M179.09,41.21c-0.08,0.15,0,0.15-0.16,0.08
		C178.94,41.13,178.94,41.13,179.09,41.21z M178.32,41.19l0.16,0c-0.16,0.15-0.08,0.15-0.23,0.07L178.32,41.19z M177.92,41.73
		l-0.78-0.02C177.54,41.41,177.54,41.41,177.92,41.73z M176.91,42.01c-0.16,0.38-0.4,0.3-0.63,0.22L176.91,42.01z M175.92,44.4
		c-0.15,0.07-0.08,0.08-0.23-0.08C175.85,44.24,175.77,44.24,175.92,44.4z M174.72,42.59c-0.08,0-0.08,0.08-0.16,0
		C174.73,42.51,174.73,42.51,174.72,42.59z M173.79,42.64c0.31,0.01,0.15,0.16,0.15,0.24L173.79,42.64l-0.08-0.08
		C173.79,42.57,173.79,42.57,173.79,42.64z M173.97,45.05c-0.24,0.23-0.32,0.15-1.4,0.28C173.04,44.95,173.51,45.04,173.97,45.05z
		 M173.33,42.48c-0.32,0.3-0.24,0.23-0.39,0.15C173.02,42.47,172.94,42.55,173.33,42.48z M170.29,43.11
		c0.16-0.07,2.33-0.11,2.48-0.02c-0.16,0.23-2.73,0.72-3.19,0.4C169.82,43.33,170.21,43.5,170.29,43.11z M167.79,43.99l0.54,0.01
		l0,0.08l-0.54-0.01L167.79,43.99z M167.48,44.14c-0.31,0.07-0.23,0.07-0.31-0.01C167.4,43.98,167.33,43.98,167.48,44.14z
		 M164.72,46.4c-0.01,0.31-0.4,0.3-0.71,0.29c-0.85-0.17-1.02,0.52-2.1,0.19C161.92,46.42,163.94,46.39,164.72,46.4z M160.76,46.24
		c-0.55,0.38-0.78,0.37-1.08-0.02C160.07,46.15,160.38,46.15,160.76,46.24z M154.2,45.17c-0.39,0.07-0.24,0.15-0.39-0.01
		C153.97,45.09,153.81,45.08,154.2,45.17z M152.66,44.59c-0.08,0.15,0,0.15-0.24,0.07C152.5,44.59,152.58,44.59,152.66,44.59z
		 M149.47,44.76c-0.08,0.08,0,0.08-0.15,0C149.4,44.68,149.32,44.68,149.47,44.76z M148.55,44.74l0.39,0.01l-0.39,0.07L148.55,44.74
		z M132.02,45.31c0.16,0,4.57,0.41,5.19,0.34c0.68,0.71-2.34,0.65-3.35,0.47l-0.31,0.23c0,0-0.31-0.08-0.69-0.25l0.15,0.08
		l-0.16,0.07c-0.08-0.08-0.08,0,0-0.16c-0.39-0.08-0.77-0.25-1-0.25L132.02,45.31z M130.77,45.36c0.24-0.23,0.53,0.32-0.32,0.3
		L130.77,45.36z M130.16,45.19l0.15,0.08c-0.24,0.23-0.16,0.15-0.31,0.07L130.16,45.19z M129.57,43.63l0.08,0.08
		C129.49,43.86,129.49,43.78,129.57,43.63z M127.99,44.99l0.15,0.16C127.9,45.38,127.83,45.3,127.99,44.99z M128.44,45.62
		c-0.47,0.22-0.47,0.22-0.7-0.01C127.9,45.46,128.13,45.54,128.44,45.62z M126.91,44.89l0.62-0.06c0.15,0.47-0.32,0.3-0.63,0.22
		L126.91,44.89z M122.37,43.09c-0.39,0.07-0.85,0.06-1.4-0.03C121.53,42.76,121.76,42.76,122.37,43.09z M108.83,34.73
		c0,0.15,0.08,0.08-0.08,0.23C108.74,34.89,108.75,34.81,108.83,34.73z M106.82,41.75l-0.16,0.07
		C106.51,41.66,106.58,41.59,106.82,41.75z M106.7,39.88c0,0.23,0,0.15-0.16,0.31C106.54,39.88,106.47,39.95,106.7,39.88z
		 M104.45,47.28l-0.07-0.16c0.16-0.08,0.16-0.08,0.23,0.08L104.45,47.28z M104.53,57.59c-0.23-0.24,0.01-0.39,0.24-0.31
		C105.01,57.29,104.92,57.68,104.53,57.59z M104.96,45.27c0.07,0.23-0.17,0.54,0.14,0.62c-0.64,0.92-0.41,0.92-1.02,0.75
		C104.81,45.04,104.56,45.42,104.96,45.27z M103.72,59.67c0.07,0.16,0,0.16-0.08,0.08L103.72,59.67z M102.52,57.39
		c0-0.15,0-0.23,0.08-0.08L102.52,57.39z M103.04,61.98l0.46,0.01c0,0.16-0.16,0.38-0.17,0.54
		C102.95,62.52,102.95,62.52,103.04,61.98z M102.68,50.03c0.23,0.16,0.23,0.08-0.01,0.39C102.45,50.1,102.52,50.18,102.68,50.03z
		 M102.35,50.95l0.15,0l-0.08,0.15C102.27,51.03,102.27,51.11,102.35,50.95z M102.08,56.3l-0.08-0.16
		C102.32,55.99,102.32,56.07,102.08,56.3z M102.11,51.41l0.16,0c-0.16,0.38-0.16,0.31-0.24,0.23L102.11,51.41z M102.1,52.03
		c0.08,0-0.08,0.39-0.39,0.22c0.08,0.16,0,0.08,0,0.23l0-0.23C101.63,51.95,101.79,51.95,102.1,52.03z M98.2,60.25
		c-0.23-0.32,0.01-0.47,0.17-0.7C98.36,59.78,98.43,60.02,98.2,60.25z M64.38,73.28c0.68,1.02,1.53,4.76,1.52,4.84
		c0.04,1.63-3.95-0.16-3.7-1.01C62.62,75.8,62.8,74.33,64.38,73.28z M66.4,91.08c-1.04,1.3-3.44,1.24-4-1.71
		c-0.28-1.32-0.52-1.02-0.74-1.88c-0.07-0.31-1.27-5.84,0.12-5.74c3.87,0.55,1.38,0.81,4.96-0.05
		C67.37,82.11,68.08,88.79,66.4,91.08z M69.83,79.53c0.71-0.76,0.8-1.22,1.42-1.13C71.24,78.7,71.39,78.86,69.83,79.53z M71.4,78.47
		l-0.07-0.08c0-0.16,0.16-0.15,0.31-0.15l0.07,0.23L71.4,78.47z M83.53,82.57c-0.07-0.23-0.22-0.47-0.22-0.7
		C83.77,82.19,83.77,82.19,83.53,82.57z M85.13,83.61l0.15,0.16l-0.16,0.08l-0.07-0.16L85.13,83.61z M83.97,83.51l0.08-0.08
		C85.55,85.79,84.83,86.86,83.97,83.51z M81.66,89.89l0.15,0.08c-0.16,0.15-0.24,0.3-0.31,0.15L81.66,89.89z M80.95,90.5l0.07,0.16
		C80.08,91.26,80.72,90.19,80.95,90.5z M72.93,110.25l0.53,0.56C72.99,110.88,72.84,110.64,72.93,110.25z M72.87,109.25l0.16-0.07
		c0.08,0.08,0.15,0.16,0.15,0.39L72.87,109.25z M73.63,110.04l-0.07-0.16l0.08,0l0.16,0.08L73.63,110.04z M74.08,110.51l0.39,0.16
		C74.23,110.83,74.23,110.83,74.08,110.51z M84.64,95.54c0.04,1.71-0.81,5.18-1.62,6.87c-0.73,1.46-3.27,4.04-3.27,4.04
		c-0.4,0.69-0.32,0.54-0.1,1.01l-1.1,0.67c0.07,0.16,0.07,0.23-0.01,0.46c-1.73,0.97-1.1,0.67-1.95,0.42
		c-0.47,0.14-0.94,0.21-1.18,0.67c0.07,0.39,0.46,0.09,0.86-0.21l0.92,0.25c0.47-0.3,1.02-0.76,1.64-0.74
		c0,0.08-0.08,0.31,0.15,0.31c-0.4,0.38-0.4,0.38-0.79,0.45c-1.87,0.35-0.55,0.38-0.48,0.46l-0.24,0.38
		c-0.47,0.07-0.93,0.06-1.31-0.18l0.16-0.31c-1.47,0.05-0.86,0.14-2.24-0.2l0.01-0.54l0.86-0.22c-0.45-0.79-0.77-0.17-1.53-0.81
		l-0.99-0.72l-0.43-1.48c-0.29-0.86,0.25-4.34,1.77-6.63c0.24-0.38,0.4-0.69,0.41-1.08c0.7-0.22,1.1-0.75,1.42-1.29
		c0.72-1.07,1.1-0.52,1.42-1.29c0.09-0.39,0.4-0.61,0.79-0.76c0.7-0.22,1.66-1.51,2.28-1.66l0.08,0c0.32-0.54,0.87-0.6,1.34-0.83
		c1.18-0.75,1.81-1.28,2.67-1.57c0.23,0.08,0.29,0.78,0.29,0.94C84.98,94.08,84.64,95.54,84.64,95.54z M78.85,108.91l0.08-0.08
		C79,108.99,78.93,108.91,78.85,108.91z M85.22,86.72l-0.16,0.07l-0.14-0.55C85.31,85.86,85.22,86.64,85.22,86.72z M85.92,90.22
		l0.15,0l0,0.16l-0.16,0.15l-0.07-0.16L85.92,90.22z M86.2,91.7c-0.38-0.39-0.29-0.78-0.29-1.09C86.36,91.31,86.21,91,86.2,91.7z
		 M91.75,92.98c0.23,0.32,0.23,0.08-0.09,0.77L91.75,92.98z M101.61,53.19c-0.01,0.31-0.01,0.46-0.33,0.77
		C101.29,53.57,101.22,53.33,101.61,53.19z M101.34,62.1l-0.16,0.23l-0.23-0.16C101.26,61.94,101.26,62.02,101.34,62.1z
		 M100.63,55.41c0.08-0.23,0.01-0.46,0.32-0.61C101.02,55.11,100.71,55.18,100.63,55.41c0.31,0.01,0.39,0.09,0.13,1.01
		c-0.16,0.31-0.62,0.14-0.56,0.53c0,0.08-0.23,0.07-0.23-0.08C99.97,56.87,100.46,56.19,100.63,55.41z M98.75,74.29
		c0.16-0.15,0.08-0.15,0.23-0.07C98.9,74.37,98.9,74.3,98.75,74.29z M99.96,57.49l-0.16,0.07l-0.15-0.08
		C99.89,57.34,99.81,57.34,99.96,57.49z M99.88,57.8l-0.1,1.24c-0.55,0.22-0.99,2.61-1.07,2.92c0,0.15-0.31,0.07-0.31-0.08
		C98.66,60.49,99.33,58.18,99.88,57.8z M98.95,82.91c-0.78,0.37-0.52-1.25-0.27-2.1l0.22,0.62C100.22,81.38,98.58,81.89,98.95,82.91
		z M96.49,82l0.02-0.93C96.66,81.38,96.57,81.69,96.49,82z M97.95,86.14c-1-0.25,0.11-1.78-0.05-1.16
		c-0.16,0.38-0.16,0.23,0.14,0.47C98.04,85.68,97.57,85.82,97.95,86.14z M98.23,80.33c0.08-0.15,0.08-0.31,0.32-0.3
		C98.78,80.11,98.85,80.5,98.23,80.33z M98.74,89.03c-0.23-0.08-0.16,0.07-0.3-0.55l0.16,0C98.9,88.95,98.82,88.72,98.74,89.03z
		 M98.35,85.53l0.09-0.62c0.39-0.22,0.39-0.22,0.64-0.84c0.46,0.4,0.05,1.09,0.51,1.56c-0.47,0.07-0.31-0.01-0.7,0.29L98.35,85.53z
		 M98.9,92.52c0-0.16,0.08-0.15,0.16-0.23l0.08,0.08L98.9,92.52z M99.32,90.67l-0.15-0.08l0.24-0.38
		C99.8,90.21,99.56,90.44,99.32,90.67z M99.4,87.41l0.08-0.08l0.07,0.31L99.4,87.41z M99.02,86.78l0.32-0.69
		c0.39-0.15,0.31,0.16,0.37,0.94L99.02,86.78z M99.85,87.89l0.39,0.01c-0.08,0.23-0.01,0.47-0.25,0.69
		C99.76,88.43,99.76,88.66,99.85,87.89z M100.07,88.59c0.3,0.16,0.38,0.4,0.37,0.71C100.13,89.52,100.29,88.83,100.07,88.59z
		 M100.55,91.62c-0.08,0-0.08-0.16,0.08-0.08L100.55,91.62z M100.68,85.35c-0.15-0.16-0.07-0.24,0.08-0.08L100.68,85.35z
		 M100.56,83.95c0.07,0.54,0.07,0.39,0.21,0.78C100.46,84.8,100.24,84.1,100.56,83.95z M101.09,87.99
		c-0.08-0.08-0.07-0.16-0.07-0.23C101.02,87.6,101.49,87.46,101.09,87.99z M102.4,88.33c0.23,0.01,0.23,0.32,0.38,0.4
		C102.63,88.64,102.47,88.56,102.4,88.33z M105.11,94.01c0.1-0.23,0.38-0.31,0.58-0.46C105.79,94.17,105.79,94.17,105.11,94.01z
		 M106.7,93.26l-0.06-0.16C109.19,90.74,109.53,92.52,106.7,93.26z M109.01,91.44l0.42-0.38l0.15,0.23
		C109.54,91.37,109.29,92.21,109.01,91.44z M121.62,63.84c0.02-0.05,0.11-0.09,0.13-0.14c0.02-0.06-0.23-0.18-0.2-0.24
		c0.02-0.06,0.24-0.07,0.26-0.13c0.2-0.53,0.42-1.04,0.65-1.53c0.03-0.07-0.03-0.13,0-0.2c0.03-0.06,0.15-0.11,0.18-0.16
		c1.32-2.61,3.05-4.43,4.41-3.91c1.05,0.23,0.61,2.33-0.19,4.51c-0.01,0.04,0.03,0.1,0.01,0.14c-0.01,0.04-0.08,0.05-0.1,0.09
		c-0.05,0.14-0.08,0.21-0.13,0.35c-0.02,0.04-0.13-0.01-0.17,0.12c-0.02,0.07,0.38,0.32,0.35,0.39c-0.03,0.08-0.4,0.05-0.44,0.13
		c-0.02,0.04-0.04,0.09-0.05,0.13c-0.03,0.06-0.02,0.2-0.05,0.27c-0.05,0.12-0.13,0.16-0.18,0.27c-0.57,1.31-1.14,2.45-1.44,2.98
		c-1.24,2.19-2.31,3.76-4.08,5.72C120.58,72.63,120.09,68.7,121.62,63.84z M116.63,70.57c0.07,0.22,0,0.49,0,0.74
		C116.28,71.01,116.28,71.01,116.63,70.57z M116.37,72.28l0.1,0.05C116.63,75.79,115.63,74.98,116.37,72.28z M116.38,75.79
		l-0.17-0.02c-0.02-0.08-0.34-0.79,0.15-0.54L116.38,75.79z M115.46,72.99l-0.17-0.03l0.1-0.19l0.1,0.05L115.46,72.99z
		 M121.82,85.48c-0.23-0.08-0.23-0.08-0.3-0.39l0.3,0.32L121.82,85.48z M123.5,86.6l0-0.15c0.07,0.08,0.23,0.08,0.23,0.24
		L123.5,86.6z M131.82,80.05c-0.12-0.13-0.29,0.4-0.34,0.3c-0.05-0.1-0.07-0.27,0.03-0.32c0.25-0.24,0.24-0.66,0.56-0.87
		c0.35-0.28,0.27-0.73,0.66-0.91C132.95,78.57,132.55,78.69,131.82,80.05z M133.15,77.57c0.05-0.14,0.13-0.12,0.2-0.09
		C133.32,77.55,133.22,77.6,133.15,77.57z M133.38,77.41c-0.05-0.1,0.03-0.07,0.13-0.12C133.48,77.36,133.45,77.43,133.38,77.41z
		 M134.25,74.61c-0.05,0.15,0,0.14-0.08,0.36c0.1,0.21-0.25-0.01-0.14,0.36c-0.07-0.03-0.05,0.23-0.12,0.21l-0.47,1.2
		c-0.22-0.08-0.17,0.06-0.34,0.08c-0.02-0.17-0.02-0.17,0.01-0.25c0.48-0.4,0.36-0.53,1.06-2.01c0.13-0.12,0.18-0.26,0.38-0.36
		C134.93,73.85,135.41,75.28,134.25,74.61z M134.89,73.5c0.23-0.41,0.34-0.7,0.69-0.98C135.42,72.95,135.46,73.3,134.89,73.5z
		 M135.89,71.89c-0.09-0.2,0.11-0.29,0.23-0.41c0.43-0.5,0.43-0.5,0.52-0.97C137.2,70.55,136.31,71.87,135.89,71.89z M139.69,70.61
		c0.21,0.1,0.36,0.34,0.53,0.51C139.78,71.17,139.78,71.17,139.69,70.61z M140.77,71.98l0.1-0.04
		C143.49,74.2,142.21,74.37,140.77,71.98z M143.18,74.49c-0.07-0.03-0.81-0.3-0.29-0.48l0.42,0.37L143.18,74.49z M147.75,76.3
		c0.25-0.61,0.25-0.61,0.18-1.08c0.55-0.14,0.12,1.4-0.27,1.55C147.51,76.6,147.67,76.45,147.75,76.3z M147.57,77.46
		c-0.01,0.46,0.14,0.78-0.34,1.16C147.32,78.15,147.33,77.84,147.57,77.46z M146.47,81.55c0,0.08,0,0.08,0.07,0.16
		c-0.08,0-0.16,0.07-0.23,0.07c0,0,0-0.08-0.07-0.16C146.32,81.62,146.4,81.54,146.47,81.55z M146.15,85.88
		c0.16-0.31,0.01-0.7,0.25-1c0.24-0.38,0.02-0.77,0.33-1.08c0.3,0.24,0.23,0.08-0.13,2.48c-0.15-0.08-0.31-0.01-0.39-0.09
		C146.14,86.11,146.07,85.96,146.15,85.88z M146.91,83.03c0-0.15,0.08-0.15,0.16-0.15C147.06,82.95,146.98,83.03,146.91,83.03z
		 M146.18,88.05c0.17-0.54-0.22-0.78-0.29-1.17c0.16-0.15,0.39-0.3,0.55-0.38c0.46,0.24,0.05,1.09,0.34,2.1
		c-0.01,0.62,0.19,2.02-0.05,2.09c-0.54,0.14-0.2-1.56-0.49-2.26C146.17,88.36,146.17,88.21,146.18,88.05z M146.95,91.95
		c-0.23-0.24-0.38-0.4-0.53-0.63l0.24-0.3C147.04,91.17,146.95,91.64,146.95,91.95z M147.07,82.8c-0.08-0.08,0-0.08,0.08-0.16
		C147.15,82.72,147.14,82.8,147.07,82.8z M147.16,82.26c-0.23-0.01-0.39-0.01-0.54,0.07c-0.08-0.16-0.08-0.16-0.07-0.24
		c0.32-0.54,0.17-0.62,0.36-2.24c0.08-0.15,0.09-0.31,0.24-0.46c0.24-0.46,1.07,0.72-0.24,0.46c0,0.16,0.07,0.31,0.07,0.54
		c0.39,0.09,0.23,0.01,0.46,0.32c-0.08,0-0.16,0.07-0.23,0.07L147.16,82.26z M147.1,92.18c0.15,0.16,0-0.08,0.36,1.25
		C146.99,93.65,147.32,92.73,147.1,92.18z M147.4,96.07c0,0,0-0.08,0-0.16C147.56,95.99,147.56,95.91,147.4,96.07z M147.83,93.9
		c0,0,0,0.08,0.08,0.08c-0.08,0.08-0.08,0.08-0.16,0.07C147.75,94.06,147.68,94.06,147.83,93.9z M147.82,94.76
		c-0.07-0.23-0.15-0.16,0.16-0.38C148.13,94.61,148.13,94.53,147.82,94.76z M148.43,95c0.08,0,0.23,0,0.23,0.08
		c0.07,0.23,0.22,0.39,0.45,0.55c-0.08,0.15-0.16,0.23-0.24,0.3C148.57,95.7,148.35,95.39,148.43,95z M149.41,96.27
		c-0.31-0.01-0.54,0.07-0.54-0.24L149.41,96.27l0.01-0.31c0.62,0.01,1.07,0.49,1.69,0.58C150.65,96.6,149.87,96.51,149.41,96.27z
		 M165.76,78.98c-0.1,0.61-0.09,2.03-0.33,2.07c-0.56,0.07,0.02-1.57-0.18-2.3c-0.06-0.09-0.04-0.24-0.02-0.4
		c0.24-0.51-0.11-0.8-0.12-1.2c0.18-0.13,0.43-0.24,0.6-0.3C166.13,77.16,165.61,77.94,165.76,78.98z M165.3,81.34
		c0.36,0.21,0.21,0.66,0.16,0.97c-0.19-0.27-0.32-0.44-0.44-0.7L165.3,81.34z M165.35,86.45c0,0,0.01-0.08,0.02-0.15
		C165.51,86.4,165.53,86.32,165.35,86.45z M165.58,82.56c0.13,0.18,0.01-0.08,0.19,1.29C165.27,84.01,165.72,83.14,165.58,82.56z
		 M165.97,84.51c0,0-0.08-0.01,0.1-0.14c0,0-0.01,0.08,0.07,0.09C166.05,84.52,166.05,84.52,165.97,84.51z M165.9,76.65
		c-0.14-0.1-0.31-0.05-0.37-0.14c-0.06-0.09-0.12-0.26-0.03-0.32c0.2-0.28,0.11-0.69,0.39-0.96c0.29-0.35,0.12-0.76,0.48-1.02
		C166.64,74.49,166.59,74.32,165.9,76.65z M188.96,75.13c0.08,0.08,0.07,0.16,0.07,0.23C188.96,75.29,188.96,75.21,188.96,75.13z
		 M188.91,73.81l0.08,0.08l-0.08,0.08l-0.16-0.08L188.91,73.81z M188.03,75.19l-0.54-0.24C187.96,74.88,187.96,74.88,188.03,75.19z
		 M190.2,82.45c0.15,0.08,0.23,0.16,0.15,0.31c-0.09,0.62-0.47,0.22-0.39,0.15L190.2,82.45c-0.31-0.08-0.15-0.31,0.17-0.93
		l0.15,0.08C190.43,82.45,190.45,81.91,190.2,82.45z M190.23,81.36l0.08-0.08l0.07,0.16L190.23,81.36z M190.24,80.59
		c0.06-0.23,0.17-0.47,0.26-0.77c0.03-0.07,0.06-0.14,0.09-0.22C190.9,81.21,190.24,80.89,190.24,80.59z M216.89,81.78
		c0,0.02-0.01,0.04-0.02,0.06c0-0.01,0-0.02,0-0.04L216.89,81.78z M217,83.58l-0.01,0.46C216.6,83.8,216.6,83.8,217,83.58z
		 M218.55,76.55l-0.4,0.69C218.07,76.85,218.15,76.7,218.55,76.55z M217.31,79.71l0.45,0.27c-0.13,0.11-0.25,0.22-0.38,0.33
		C217.16,80.28,217,80.09,217.31,79.71z M215.1,85.7c0.23-0.34,0.46-0.65,0.69-0.94c0,0.2,0.01,0.39,0.02,0.58
		C215.21,85.86,214.84,86.1,215.1,85.7z M232.71,81.36c0-0.23,0.08-0.31,0.09-0.46C232.87,81.05,232.94,81.21,232.71,81.36z
		 M234.52,76.35c-0.09,0.54-0.25,0.85-0.89,1.45C233.58,77.11,233.83,76.26,234.52,76.35z M233.78,85.72
		c-0.08,0.23-0.39,0.23-0.3-0.47C233.71,85.41,233.86,85.41,233.78,85.72z M233.65,84.56c-0.39,0.15-0.21-1.17,0.39-0.22
		C233.88,84.41,233.8,84.56,233.65,84.56z M233.36,83.39c0.24-0.46,0.79-0.68,0.49-1.23c0.47-0.3,0.24-0.23,0.63-0.45
		c0.06,0.7-0.26,1.23-0.43,1.77C233.82,83.63,233.59,83.47,233.36,83.39z M234.4,85.66c-0.08,0-0.08-0.08-0.08-0.08
		C234.33,85.19,234.48,85.35,234.4,85.66z M234.38,86.35c-0.08,0.08-0.08,0.08-0.15-0.08C234.39,86.2,234.31,86.2,234.38,86.35z
		 M234.32,89.3c-0.07-0.23-0.07-0.47-0.06-0.62C234.27,88.29,234.87,89.08,234.32,89.3z M234.81,92.02c0-0.08-0.07-0.08,0-0.23
		c0.08,0,0.08,0.08,0.08,0.08C234.88,91.95,234.88,91.95,234.81,92.02z M235.23,90.25c-0.08,0-0.15-0.08-0.23-0.16l0.16-0.15
		C235.31,90.17,235.31,90.1,235.23,90.25z M235.53,90.88l-0.08-0.08l0-0.23l0.15,0C235.61,90.72,235.53,90.8,235.53,90.88z
		 M235.58,95.76l0.16,0C235.81,95.92,235.65,96,235.58,95.76z M235.97,81.35c0.15,0.08,0.23,0.16,0.23,0.24
		C236.19,81.82,235.57,81.96,235.97,81.35z M236.01,97.25c0.08-0.08,0.08-0.08,0.16-0.07C236.17,97.17,236.24,97.33,236.01,97.25z
		 M236.83,98.73c0.12,0.15,0.38,0.32,0.38,0.32C236.86,98.99,236.74,98.92,236.83,98.73z M237.09,97.42c0-0.23-0.07-0.39-0.07-0.46
		l0.39,0.01C237.41,97.2,237.18,97.19,237.09,97.42z"/>
	<path class="st0" d="M144.63,62.59l0-0.08l-0.08,0.08l0,0.08C144.56,62.58,144.63,62.59,144.63,62.59z"/>
	<path class="st0" d="M107.06,37.41c-0.31,0.15-0.4,0.38-0.4,0.69C106.9,37.95,107.05,37.8,107.06,37.41z"/>
	<polygon class="st0" points="95.47,71.51 95.55,71.43 95.48,71.35 	"/>
	<path class="st0" d="M106.41,39.02c-0.23-0.31-0.31-0.16-0.16,0.07L106.41,39.02z"/>
	<path class="st0" d="M96.58,70.37l0.16-0.15l-0.37-0.55C96.2,69.97,96.28,70.21,96.58,70.37z"/>
	<path class="st0" d="M95.73,73.92c0.32-0.23,0.31,0.01,0.25-0.85l0.31-0.23c-0.44-1.02,0.49-1.15,0.04-1.63
		C95.7,71.59,95.43,73.52,95.73,73.92z"/>
	<path class="st0" d="M144.13,44.33c-0.46-0.17-0.84-0.25-1.31-0.11l0.3,0.32L144.13,44.33z"/>
	<path class="st0" d="M147.62,44.56c0,0.23-0.24,0.15-0.32,0.46l0.39-0.07L147.62,44.56z"/>
	<path class="st0" d="M142.2,44.06c-1.39-0.03-1.39-0.11-1.55,0.12C141.12,44.03,141.57,44.43,142.2,44.06z"/>
	<path class="st0" d="M176.37,41.46c0.07,0.08,0.07,0.08,0.15,0.08C176.53,41.46,176.53,41.46,176.37,41.46z"/>
	<path class="st0" d="M145.06,44.51c0.86-0.21,1.24,0.03,2.17-0.11c-0.77-0.25-1.62-0.27-2.4-0.13
		C144.83,44.5,144.9,44.58,145.06,44.51z"/>
	<path class="st0" d="M94.87,77.7l0.25-0.77c0.14,0.55-0.1,1.16,0.12,1.63c0.55-0.38,0.94-4.01,0.33-4.34
		c-0.03,1.55-0.25,1-0.2,2.01C95.35,77.09,94.43,76.6,94.87,77.7z"/>
	<path class="st0" d="M160.67,47.02l-0.7,0.14l0.15,0.31C160.58,47.48,160.58,47.48,160.67,47.02z"/>
	<path class="st0" d="M184.43,41.79c-0.23,0-0.38-0.01-0.55,0.22C184.27,42.09,184.27,42.09,184.43,41.79z"/>
	<polygon class="st0" points="159.26,47.68 159.34,47.53 159.18,47.6 	"/>
	<path class="st0" d="M105.68,54.75l-0.01,0.31C105.91,54.91,105.91,54.91,105.68,54.75z"/>
	<path class="st0" d="M104.08,60.53c0.01-0.23,0.16-0.23-0.23-0.32C103.93,60.53,103.85,60.37,104.08,60.53z"/>
	<path class="st0" d="M136.62,47.35l-0.07-0.08C136.47,47.27,136.39,47.42,136.62,47.35z"/>
	<path class="st0" d="M97.15,91.01l0.23,0.16C97.76,91.49,97.85,90.64,97.15,91.01z"/>
	<path class="st0" d="M95.31,82.9c0.23-0.07,0.16-0.23,0.17-0.69C95.23,82.51,95.39,82.67,95.31,82.9z"/>
	<polygon class="st0" points="95.47,86.17 95.46,86.55 95.62,86.17 	"/>
	<path class="st0" d="M98.71,57.93l0.72-1.07c-0.07-0.47-0.05-1.09-0.05-1.09C99.3,55.93,98.71,57.78,98.71,57.93z"/>
	<path class="st0" d="M95.37,83.29c0-0.08,0.08-0.08,0-0.23C95.3,83.21,95.38,83.22,95.37,83.29z"/>
	<path class="st0" d="M96.66,88.59c-0.56,0.69,0.19,2.02,0.43,1.87c0.16-0.08,0.01-0.31-0.07-0.39
		C96.4,89.75,97.03,89.22,96.66,88.59z"/>
	<path class="st0" d="M95.84,86.64l-0.39-0.09c0.22,0.47,0.15,0.39,0.3,0.47l0.47-0.38l-0.22-0.7
		C95.94,86.02,95.93,86.48,95.84,86.64z"/>
	<path class="st0" d="M153.51,44.46c0.08,0.08,0.15,0.08,0.23,0.08C153.59,44.46,153.59,44.46,153.51,44.46z"/>
	<path class="st0" d="M102.66,86.79c-0.07-0.31-1.07-0.41-0.32,0.38C102.58,87.09,102.66,86.94,102.66,86.79z"/>
	<path class="st0" d="M101.94,84.44l-0.1,1.08C102.53,85.77,102.32,84.84,101.94,84.44z"/>
	<path class="st0" d="M102.62,81.74c0.07,0.23-0.09,0.54,0.14,0.93C102.92,82.22,102.85,81.98,102.62,81.74z"/>
	<path class="st0" d="M103.16,63.84l-0.27,1.47C103.3,64.78,103.3,64.47,103.16,63.84z"/>
	<path class="st0" d="M103.33,66.79l-0.07-0.08c-0.24,0.15-0.16,0.15-0.08,0.23L103.33,66.79z"/>
	<path class="st0" d="M102.75,68.49l0.16-0.07l-0.08-0.16C102.68,68.33,102.75,68.33,102.75,68.49z"/>
	<path class="st0" d="M102.09,77.39c-0.2,2.01,0.15,3.8,0.45,4.35C102.63,81.43,102.55,77.79,102.09,77.39z"/>
	<path class="st0" d="M98.63,58.32l0.08-0.08C98.55,58.16,98.55,58.16,98.63,58.32z"/>
	<path class="st0" d="M102.2,47.31c0.08-0.15,0.08-0.08,0-0.16L102.2,47.31z"/>
	<path class="st0" d="M102,49.47c0.32-0.3,0.32-0.3,0.32-0.46c0.01-0.7,0.33-0.77,0.49-1.23C102.26,47.77,101.93,49.01,102,49.47z"
		/>
	<path class="st0" d="M101.95,47.84l0.08-0.15C101.88,47.69,101.96,47.69,101.95,47.84z"/>
	<path class="st0" d="M102.63,66.86c0.32-0.22,0.32-0.22,0.18-0.85C102.72,66.31,102.48,66.54,102.63,66.86z"/>
	<path class="st0" d="M97.47,61.55c-0.01,0.31-0.24,0.61-0.18,1C97.61,62.17,97.62,61.86,97.47,61.55z"/>
	<path class="st0" d="M100.2,53.47l-0.16,0.31C100.2,53.7,100.27,53.78,100.2,53.47z"/>
	<path class="st0" d="M154.15,47.11c-0.62-0.17-1.95,0.5-2.16-0.43c-0.62-0.09-1.23-0.34-1.4,0.2l0.15,0.08
		c0,0.23-0.86,0.14-1.01,0.13c-0.77-0.09-0.63,0.22-1.17,0.29c0.61,0.71,0.7-0.06,1,0.25c0.38,0.32,0.7,0.02,1.09-0.21
		c0.14,0.78,0.62-0.14,1.55,0.27c0.31-0.15,0.31,0.08,0.7,0.01c0.08-0.15,0.09-0.46,0.47-0.3l-0.01,0.39l0.85,0.17l0.63-0.45
		l-0.62-0.17L154.15,47.11z"/>
	<path class="st0" d="M104.67,58.68l-0.08-0.16C104.36,58.67,104.43,58.75,104.67,58.68z"/>
	<path class="st0" d="M103.06,46.94l-0.08,0.23C103.13,47.25,103.21,47.09,103.06,46.94z"/>
	<path class="st0" d="M145.48,46.45c-0.07-0.16-0.07-0.16-0.23-0.31C145.25,46.45,145.25,46.37,145.48,46.45z"/>
	<path class="st0" d="M102.03,47.69l0.16-0.31C102.04,47.38,102.04,47.54,102.03,47.69z"/>
	<path class="st0" d="M149.27,46.85c0.54,0.09,0.93,0.1,1.32,0.03C150.21,46.79,149.82,46.7,149.27,46.85z"/>
	<path class="st0" d="M103.24,85.17c-0.16,0.08-0.16,0-0.08,0.15C103.32,85.25,103.24,85.32,103.24,85.17z"/>
	<path class="st0" d="M102.16,74.37c0.24-0.23,0.24-0.23,0.01-0.54L102.16,74.37z"/>
	<path class="st0" d="M103.43,87.42l0.24-0.23C103.28,87.03,103.28,87.11,103.43,87.42z"/>
	<path class="st0" d="M102.1,77c0.4-0.69,0.41-0.85,0.12-1.86C101.98,75.53,101.74,75.83,102.1,77z"/>
	<path class="st0" d="M103.14,86.33l0.15,0.39C103.37,86.41,103.37,86.41,103.14,86.33z"/>
	<path class="st0" d="M102.35,72.67c-0.08,0.15-0.08,0.15,0,0.23C102.35,72.82,102.42,72.82,102.35,72.67z"/>
</g>
</svg>
