<?xml version="1.0" encoding="UTF-8"?>
<svg xmlns="http://www.w3.org/2000/svg" xmlns:xlink="http://www.w3.org/1999/xlink" width="886pt" height="204.28pt" viewBox="0 0 886 204.28" version="1.1">
<defs>
<clipPath id="clip1">
  <path d="M 0 0 L 108 0 L 108 204.28125 L 0 204.28125 Z M 0 0 "/>
</clipPath>
<clipPath id="clip2">
  <path d="M 137 0 L 161 0 L 161 204.28125 L 137 204.28125 Z M 137 0 "/>
</clipPath>
<clipPath id="clip3">
  <path d="M 576 0 L 600 0 L 600 204.28125 L 576 204.28125 Z M 576 0 "/>
</clipPath>
<clipPath id="clip4">
  <path d="M 729 0 L 790 0 L 790 204.28125 L 729 204.28125 Z M 729 0 "/>
</clipPath>
<clipPath id="clip5">
  <path d="M 475 0 L 546 0 L 546 204.28125 L 475 204.28125 Z M 475 0 "/>
</clipPath>
<clipPath id="clip6">
  <path d="M 629 0 L 700 0 L 700 204.28125 L 629 204.28125 Z M 629 0 "/>
</clipPath>
<clipPath id="clip7">
  <path d="M 815 0 L 886 0 L 886 204.28125 L 815 204.28125 Z M 815 0 "/>
</clipPath>
<clipPath id="clip8">
  <path d="M 283 0 L 354 0 L 354 204.28125 L 283 204.28125 Z M 283 0 "/>
</clipPath>
<clipPath id="clip9">
  <path d="M 187 0 L 258 0 L 258 204.28125 L 187 204.28125 Z M 187 0 "/>
</clipPath>
<clipPath id="clip10">
  <path d="M 378 0 L 449 0 L 449 204.28125 L 378 204.28125 Z M 378 0 "/>
</clipPath>
</defs>
<g id="surface1">
<g clip-path="url(#clip1)" clip-rule="nonzero">
<path style=" stroke:none;fill-rule:nonzero;fill:rgb(12.820435%,11.13739%,11.123657%);fill-opacity:1;" d="M 0 204.015625 L 0 0.00390625 L 34.082031 0.00390625 L 49.554688 111.054688 L 53.222656 147.457031 L 56.890625 111.316406 L 72.371094 0.00390625 L 107.238281 0.00390625 L 107.238281 204.015625 L 86.261719 204.015625 L 86.261719 36.324219 L 83.378906 64.117188 L 62.925781 204.015625 L 43.785156 204.015625 L 23.332031 62.019531 L 20.972656 36.585938 L 20.972656 204.015625 L 0 204.015625 "/>
</g>
<g clip-path="url(#clip2)" clip-rule="nonzero">
<path style=" stroke:none;fill-rule:nonzero;fill:rgb(12.820435%,11.13739%,11.123657%);fill-opacity:1;" d="M 137.492188 0.00390625 L 160.832031 0.00390625 L 160.832031 204.015625 L 137.492188 204.015625 L 137.492188 0.00390625 "/>
</g>
<g clip-path="url(#clip3)" clip-rule="nonzero">
<path style=" stroke:none;fill-rule:nonzero;fill:rgb(12.820435%,11.13739%,11.123657%);fill-opacity:1;" d="M 576.035156 0.00390625 L 599.375 0.00390625 L 599.375 204.015625 L 576.035156 204.015625 L 576.035156 0.00390625 "/>
</g>
<g clip-path="url(#clip4)" clip-rule="nonzero">
<path style=" stroke:none;fill-rule:nonzero;fill:rgb(12.820435%,11.13739%,11.123657%);fill-opacity:1;" d="M 753.226563 180.941406 L 789.148438 180.941406 L 789.148438 204.28125 L 729.886719 204.28125 L 729.886719 0.0117188 L 789.148438 0.0117188 L 789.148438 23.339844 L 753.226563 23.339844 L 753.226563 88.242188 L 773.667969 88.242188 L 773.667969 111.582031 L 753.226563 111.582031 L 753.226563 180.941406 "/>
</g>
<g clip-path="url(#clip5)" clip-rule="nonzero">
<path style=" stroke:none;fill-rule:nonzero;fill:rgb(12.820435%,11.13739%,11.123657%);fill-opacity:1;" d="M 522.449219 0.00390625 L 522.449219 169.007813 C 522.449219 175.453125 517.226563 180.675781 510.78125 180.675781 C 504.335938 180.675781 499.113281 175.453125 499.113281 169.007813 L 499.113281 0.00390625 L 475.773438 0.00390625 L 475.773438 169.007813 L 475.78125 169.007813 C 475.78125 188.339844 491.445313 204.015625 510.78125 204.015625 C 530.117188 204.015625 545.789063 188.339844 545.789063 169.007813 L 545.789063 0.00390625 L 522.449219 0.00390625 "/>
</g>
<g clip-path="url(#clip6)" clip-rule="nonzero">
<path style=" stroke:none;fill-rule:nonzero;fill:rgb(12.820435%,11.13739%,11.123657%);fill-opacity:1;" d="M 664.628906 0.00390625 L 629.628906 0.00390625 L 629.628906 204.015625 L 664.628906 204.015625 C 683.964844 204.015625 699.636719 188.339844 699.636719 169.007813 L 699.636719 35.007813 C 699.636719 15.679688 683.964844 0.00390625 664.628906 0.00390625 M 676.296875 169.007813 C 676.296875 175.453125 671.074219 180.675781 664.628906 180.675781 L 652.960938 180.675781 L 652.960938 23.34375 L 664.628906 23.34375 C 671.074219 23.34375 676.296875 28.570313 676.296875 35.007813 L 676.296875 169.007813 "/>
</g>
<g clip-path="url(#clip7)" clip-rule="nonzero">
<path style=" stroke:none;fill-rule:nonzero;fill:rgb(12.820435%,11.13739%,11.123657%);fill-opacity:1;" d="M 850.992188 0.00390625 L 815.992188 0.00390625 L 815.992188 204.015625 L 850.992188 204.015625 C 870.335938 204.015625 886 188.339844 886 169.007813 L 886 35.007813 C 886 15.679688 870.335938 0.00390625 850.992188 0.00390625 M 862.660156 169.007813 C 862.660156 175.453125 857.445313 180.675781 850.992188 180.675781 L 839.328125 180.675781 L 839.328125 23.34375 L 850.992188 23.34375 C 857.445313 23.34375 862.660156 28.570313 862.660156 35.007813 L 862.667969 35.007813 L 862.667969 169.007813 L 862.660156 169.007813 "/>
</g>
<g clip-path="url(#clip8)" clip-rule="nonzero">
<path style=" stroke:none;fill-rule:nonzero;fill:rgb(12.820435%,11.13739%,11.123657%);fill-opacity:1;" d="M 326.535156 93.511719 C 315.550781 83.171875 306.867188 75.011719 306.867188 58.09375 L 306.867188 35.015625 C 306.867188 28.570313 312.101563 23.34375 318.542969 23.34375 C 324.988281 23.34375 330.214844 28.570313 330.214844 35.015625 L 330.214844 58.09375 L 353.554688 58.09375 L 353.554688 35.015625 C 353.554688 15.679688 337.878906 0.0078125 318.542969 0.0078125 C 299.210938 0.0078125 283.535156 15.679688 283.535156 35.015625 L 283.535156 58.09375 C 283.535156 85.089844 298.511719 99.191406 310.542969 110.515625 C 321.53125 120.847656 330.214844 129.019531 330.214844 145.929688 L 330.214844 169.007813 C 330.214844 175.460938 324.988281 180.675781 318.542969 180.675781 C 312.101563 180.675781 306.875 175.460938 306.875 169.007813 L 306.867188 134.132813 L 283.535156 134.132813 L 283.535156 169.007813 C 283.535156 188.34375 299.210938 204.015625 318.542969 204.015625 C 337.878906 204.015625 353.554688 188.34375 353.554688 169.007813 L 353.554688 145.929688 C 353.554688 118.929688 338.578125 104.835938 326.535156 93.511719 "/>
</g>
<g clip-path="url(#clip9)" clip-rule="nonzero">
<path style=" stroke:none;fill-rule:nonzero;fill:rgb(12.820435%,11.13739%,11.123657%);fill-opacity:1;" d="M 230.679688 93.511719 C 219.691406 83.171875 211.015625 75.011719 211.015625 58.09375 L 211.015625 35.015625 C 211.015625 28.570313 216.242188 23.34375 222.6875 23.34375 C 229.132813 23.34375 234.355469 28.570313 234.355469 35.015625 L 234.355469 58.09375 L 257.695313 58.09375 L 257.695313 35.015625 C 257.695313 15.679688 242.019531 0.0078125 222.6875 0.0078125 C 203.351563 0.0078125 187.679688 15.679688 187.679688 35.015625 L 187.679688 58.09375 C 187.679688 85.089844 202.652344 99.191406 214.683594 110.515625 C 225.671875 120.847656 234.355469 129.019531 234.355469 145.929688 L 234.355469 169.007813 C 234.355469 175.460938 229.132813 180.675781 222.6875 180.675781 C 216.242188 180.675781 211.015625 175.460938 211.015625 169.007813 L 211.015625 134.132813 L 187.679688 134.132813 L 187.679688 169.007813 C 187.679688 188.34375 203.351563 204.015625 222.6875 204.015625 C 242.019531 204.015625 257.695313 188.34375 257.695313 169.007813 L 257.695313 145.929688 C 257.695313 118.929688 242.71875 104.835938 230.679688 93.511719 "/>
</g>
<g clip-path="url(#clip10)" clip-rule="nonzero">
<path style=" stroke:none;fill-rule:nonzero;fill:rgb(12.820435%,11.13739%,11.123657%);fill-opacity:1;" d="M 448.929688 58.09375 L 448.929688 35.015625 C 448.929688 15.675781 433.253906 0.0078125 413.929688 0.0078125 C 394.59375 0.0078125 378.917969 15.675781 378.917969 35.015625 L 378.917969 169.011719 C 378.917969 188.125 394.242188 203.632813 413.273438 203.984375 L 413.273438 204.019531 C 424.984375 204.019531 433.109375 198.777344 437.652344 188.285156 L 448.929688 204.019531 L 448.929688 111.320313 L 413.921875 111.320313 L 413.921875 134.125 L 425.597656 134.125 L 425.589844 169.011719 C 425.589844 175.320313 420.59375 180.417969 414.339844 180.636719 C 414.195313 180.636719 413.929688 180.679688 413.929688 180.679688 C 407.484375 180.679688 402.25 175.453125 402.25 169.011719 L 402.25 35.015625 C 402.25 28.5625 407.484375 23.347656 413.929688 23.347656 C 420.371094 23.347656 425.589844 28.5625 425.589844 35.015625 L 425.589844 58.09375 L 448.929688 58.09375 "/>
</g>
</g>
</svg>
