<svg xmlns="http://www.w3.org/2000/svg" width="117.586" height="88.189" viewBox="0 0 117.586 88.189"><path d="M80.84,108.095H71.973a30.518,30.518,0,0,0-13.18-6.43V90.742l-7.349-.776-7.349.776v10.923a30.8,30.8,0,0,0-13.18,6.43H3.675A3.675,3.675,0,0,0,0,111.769v22.047a3.675,3.675,0,0,0,3.675,3.675h21.31c4.729,8.665,14.746,14.7,26.459,14.7s21.73-6.033,26.459-14.7H80.84a7.349,7.349,0,0,1,7.349,7.349,7.349,7.349,0,0,0,7.349,7.349h14.7a7.349,7.349,0,0,0,7.349-7.349A36.746,36.746,0,0,0,80.84,108.095ZM58.793,74.045V67.675A3.675,3.675,0,0,0,55.118,64H47.769a3.675,3.675,0,0,0-3.675,3.675v6.371l7.349.776Z" transform="translate(0 -64)" fill="#979797" opacity="0.4"/><path d="M137.491,99.882v6.94a3.754,3.754,0,0,1-4.04,3.858l-32.706-3.452L68.04,110.673A3.755,3.755,0,0,1,64,106.815V99.882a3.754,3.754,0,0,1,4.04-3.858l32.706,3.445,32.706-3.445A3.755,3.755,0,0,1,137.491,99.882Z" transform="translate(-49.302 -88.654)" fill="#979797"/></svg>